<?xml version="1.0" encoding="UTF-8" standalone="no"?>
<svg
   xmlns:dc="http://purl.org/dc/elements/1.1/"
   xmlns:cc="http://creativecommons.org/ns#"
   xmlns:rdf="http://www.w3.org/1999/02/22-rdf-syntax-ns#"
   xmlns:svg="http://www.w3.org/2000/svg"
   xmlns="http://www.w3.org/2000/svg"
   xmlns:sodipodi="http://sodipodi.sourceforge.net/DTD/sodipodi-0.dtd"
   xmlns:inkscape="http://www.inkscape.org/namespaces/inkscape"
   sodipodi:docname="Logo US Granville 2016.svg"
   inkscape:version="1.0 (4035a4f, 2020-05-01)"
   version="1.1"
   width="700"
   height="700"
   id="svg70"
   viewBox="0 0 700 700">
  <sodipodi:namedview
     inkscape:document-rotation="0"
     inkscape:current-layer="svg70"
     inkscape:window-maximized="0"
     inkscape:window-y="0"
     inkscape:window-x="0"
     inkscape:cy="485.27192"
     inkscape:cx="97.661473"
     inkscape:zoom="0.48547777"
     showgrid="false"
     id="namedview42"
     inkscape:window-height="900"
     inkscape:window-width="1440"
     inkscape:pageshadow="2"
     inkscape:pageopacity="0"
     guidetolerance="10"
     gridtolerance="10"
     objecttolerance="10"
     borderopacity="1"
     bordercolor="#666666"
     pagecolor="#ffffff" />
  <metadata
     id="metadata76">
    <rdf:RDF>
      <cc:Work
         rdf:about="">
        <dc:format>image/svg+xml</dc:format>
        <dc:type
           rdf:resource="http://purl.org/dc/dcmitype/StillImage" />
        <dc:title />
      </cc:Work>
    </rdf:RDF>
  </metadata>
  <defs
     id="defs74" />
  <g
     id="g1176">
    <path
       inkscape:connector-curvature="0"
       d="M 349.99999,-1.527537e-5 A 349.99999,350.00001 0 0 1 699.99998,349.99999 349.99999,350.00001 0 1 1 349.99999,-1.527537e-5 Z"
       style="fill:#0063a3;fill-rule:evenodd;stroke-width:1.23495;fill-opacity:1"
       id="path2" />
    <path
       id="path1028"
       style="fill:#01b2ea;fill-opacity:1;fill-rule:evenodd;stroke-width:1.07702"
       d="m 349.67988,50.099828 a 307.5,303.00002 0 0 1 307.5,303.000012 307.5,303.00002 0 1 1 -307.5,-303.000012 z"
       inkscape:connector-curvature="0" />
  </g>
  <g
     style="stroke-width:1.2;stroke-miterlimit:4;stroke-dasharray:none;fill:#0063a3;fill-opacity:1"
     id="g1034">
    <path
       id="path55"
       style="fill:#0063a3;fill-rule:evenodd;stroke-width:1.2;stroke:#ffffff;stroke-miterlimit:4;stroke-dasharray:none;fill-opacity:1"
       d="m 317.18359,594.05911 -5.80938,40.34936 -11.76612,-1.6928 3.11486,-21.63406 c 0.44948,-3.12163 0.63364,-5.01421 0.55138,-5.66886 -0.0715,-0.65255 -0.47159,-1.20052 -1.18305,-1.63798 -0.70849,-0.43499 -2.86943,-0.90727 -5.49627,-1.28522 l -1.12203,-0.16138 0.6418,-4.45772 c 6.74675,-0.0969 11.2634,-1.89628 14.57984,-4.74491 z"
       inkscape:connector-curvature="0" />
    <path
       id="path57"
       style="fill:#0063a3;fill-rule:evenodd;stroke-width:1.2;stroke:#ffffff;stroke-miterlimit:4;stroke-dasharray:none;fill-opacity:1"
       d="m 382.78959,594.92947 2.39191,40.69496 -11.86691,0.697 -1.28248,-21.81939 c -0.18503,-3.14842 -0.38364,-5.03952 -0.59535,-5.66442 -0.20096,-0.62501 -0.70269,-1.08174 -1.48739,-1.36794 -0.78112,-0.28436 -2.99307,-0.31449 -5.64239,-0.15879 l -1.13154,0.0664 -0.26433,-4.49587 c 6.59075,-1.44561 10.65533,-4.11274 13.33393,-7.56761 z"
       inkscape:connector-curvature="0" />
    <path
       id="path59"
       style="fill:#0063a3;fill-rule:evenodd;stroke-width:1.2;stroke:#ffffff;stroke-miterlimit:4;stroke-dasharray:none;fill-opacity:1"
       d="m 324.70084,624.95544 11.64705,0.46574 -0.16366,3.68293 c -0.0653,1.47907 1.04137,2.39585 2.2758,2.45536 1.23518,0.0603 2.5993,-0.73404 2.65933,-2.31695 l 0.37747,-10.09558 c -0.60462,1.06791 -1.8971,2.01815 -3.05631,2.51661 -1.15439,0.4971 -2.56829,0.72305 -4.25319,0.65576 -2.10029,-0.084 -3.92995,-0.66589 -5.49478,-1.73318 -3.17785,-2.1683 -3.99331,-6.21164 -3.79581,-9.87765 l 0.31003,-5.74961 c 0.25272,-4.70652 2.91525,-8.22584 7.53059,-9.63071 1.9018,-0.57847 4.08484,-0.81776 6.56271,-0.71861 3.05841,0.12224 5.56037,0.60106 7.49515,1.43512 1.93403,0.83405 3.51529,1.98197 4.53246,3.44117 2.27852,3.26991 2.18427,5.60823 2.0972,9.42834 -0.0274,1.19397 -0.0708,2.56489 -0.13242,4.10434 l -0.2264,5.65947 c -0.0751,1.87554 -0.15403,3.51056 -0.23345,4.9037 -0.31102,5.45278 -1.30002,10.19893 -7.58012,12.46057 -1.98999,0.71651 -4.60633,1.01025 -7.21945,0.90579 -3.23307,-0.12928 -5.85892,-0.6949 -7.87225,-1.69947 -2.01604,-1.00544 -3.62374,-2.37252 -4.45402,-4.08311 -0.83399,-1.71749 -1.10808,-3.65934 -1.00593,-6.21003 z m 11.83344,-13.56083 c -0.065,1.62539 0.32695,3.41401 2.43872,3.49846 2.04829,0.0819 2.72528,-1.32387 2.79346,-3.02914 l 0.32226,-8.05385 c 0.0676,-1.68823 -0.38537,-3.51118 -2.49925,-3.59575 -2.18143,-0.0872 -2.67352,1.65798 -2.73726,3.25151 z"
       inkscape:connector-curvature="0" />
    <path
       id="path61"
       style="fill:#0063a3;fill-rule:evenodd;stroke-width:1.2;stroke:#ffffff;stroke-miterlimit:4;stroke-dasharray:none;fill-opacity:1"
       d="m 416.64848,607.94097 c 5.83519,0.61477 6.40399,5.86382 7.12027,10.385 0.51519,3.25139 0.52433,5.70355 0.0163,7.36796 -0.49814,1.65378 -1.74172,3.14743 -3.73998,4.48167 -2.00023,1.32621 -4.81037,2.27559 -8.42955,2.84863 -3.5295,0.55883 -6.39262,0.52488 -8.5979,-0.0916 -2.20663,-0.62526 -3.87782,-1.63959 -5.01776,-3.06075 -1.13846,-1.41191 -2.00221,-3.9379 -2.57793,-7.57107 -0.38599,-2.43636 -0.51815,-4.10965 -0.36227,-5.96914 0.1565,-1.86024 1.07571,-4.42648 3.94835,-5.59762 -1.5704,-0.36955 -3.27098,-0.97962 -4.20848,-2.16212 -0.93762,-1.18261 -1.58608,-2.87208 -1.90352,-4.8753 -0.57547,-3.63181 0.20553,-6.52094 2.1723,-8.51637 2.22849,-2.26226 5.90905,-3.51809 9.77218,-4.12978 5.22452,-0.82714 9.00674,-0.3898 11.29193,1.13521 2.28606,1.525 3.72231,4.09113 4.26307,7.50365 0.60635,3.82641 -0.62759,6.35623 -3.74701,8.25165 z m -8.14707,-8.27103 c -0.24666,-1.55649 -0.67082,-3.24522 -2.75777,-2.91481 -2.02716,0.32103 -1.87832,2.32202 -1.64389,3.80158 l 0.48431,3.05619 c 0.22913,1.44623 0.81324,3.15965 2.74937,2.85319 2.11066,-0.33424 1.84732,-2.50833 1.60511,-4.03741 z m 3.08225,17.35723 c -0.26235,-1.65552 -0.82819,-3.69812 -3.09374,-3.33943 -2.28321,0.36152 -2.04322,2.57908 -1.78531,4.20645 l 0.82719,5.22053 c 0.27495,1.7349 0.823,4.07371 3.2112,3.69564 2.39327,-0.37893 1.91909,-2.97691 1.65575,-4.63897 z"
       inkscape:connector-curvature="0" />
  </g>
  <path
     inkscape:connector-curvature="0"
     d="M 512.51,358.76627 A 95.640796,95.606014 0 0 1 608.15079,454.37228 95.640796,95.606014 0 1 1 512.51,358.76627 Z"
     style="fill:#0063a3;fill-rule:evenodd;stroke-width:1.23495;fill-opacity:1"
     id="path64" />
  <path
     d="M 487.3125 364.65625 C 468.06692 370.05143 451.35555 381.41699 439.29688 396.68945 C 442.27527 395.1259 445.59026 393.66094 449.66992 392.57227 C 451.38433 389.42406 453.43017 386.5381 455.7207 384 C 458.32315 381.11593 461.31725 378.73738 464.23438 376.7793 C 472.58011 371.17747 479.55227 369.34323 485.19727 368.4668 C 485.76516 367.13053 486.45259 365.85432 487.3125 364.65625 z M 545.63477 367.23828 C 546.49343 368.15445 547.36517 369.06538 548.06445 370.05664 L 549.36523 371.90039 L 547.12109 372.13477 C 534.29475 373.46963 524.10278 375.84263 517.47852 380.13086 C 517.24018 389.75008 517.08536 399.3132 516.83984 408.84766 C 517.01553 408.94981 517.29258 408.98553 517.42969 409.0918 L 517.43164 409.09375 L 547.22266 432.16602 L 579.00781 425.63672 C 580.10875 419.98752 580.50965 415.26095 580.40234 411.0957 L 582.70508 410.80078 C 582.66568 410.48443 582.66975 410.05302 582.62695 409.75 L 580.25977 408.24609 L 580.20117 407.5957 C 579.85361 403.67285 579.11605 400.08405 578.28906 396.33594 C 574.64489 391.15531 568.02762 383.40948 556.75 376.36523 L 558.10156 374.08984 C 558.11976 374.10004 558.13414 374.11089 558.15234 374.12109 C 558.15334 374.12209 558.15525 374.1223 558.15625 374.12305 C 566.17258 378.65077 571.87507 383.70708 575.61328 387.66406 C 577.48693 389.64736 578.86876 391.35637 579.80078 392.58008 C 580.26679 393.19193 580.62216 393.68374 580.86328 394.01953 C 580.97313 394.17251 581.05132 394.28132 581.10742 394.35742 C 583.1783 395.73349 585.28173 397.18027 587.34766 398.68359 C 576.82065 384.57221 562.36344 373.59948 545.63477 367.23828 z M 486.21094 371.16406 C 484.03517 371.61208 481.42397 372.1089 478.60742 373.11914 L 478.60547 373.11914 C 474.69521 374.52118 471.02892 376.22538 466.31641 379.4043 C 463.86696 381.0564 461.05779 383.26678 458.84961 385.57422 C 457.42409 387.06388 456.07101 388.72397 454.82812 390.59766 C 453.83393 392.09598 453.37778 392.994 452.32422 395.37305 C 451.48734 398.64175 450.99677 402.05185 450.82617 405.45117 L 450.76562 406.66406 L 449.39648 406.71289 L 450.77148 406.90234 C 450.64069 412.26373 451.32766 417.49402 452.56641 422.04297 L 481.97852 430.63672 C 482.01986 430.6072 482.06066 430.5575 482.10156 430.5293 L 513.36133 409.00586 L 513.36328 409.00586 C 513.45363 408.9437 513.55253 408.9292 513.64453 408.875 C 513.70431 398.96188 513.91501 389.20547 514.32227 379.29297 C 508.80605 375.36204 496.00638 372.03384 486.21094 371.16406 z M 451.61719 425.22656 C 450.80722 425.80373 449.99897 426.4143 449.19922 427.13086 L 448.91602 427.38477 L 448.72656 427.56055 C 442.89949 432.99014 437.5246 441.95956 433.375 452.03906 C 433.10318 473.48346 441.08094 485.92672 443.92188 490.01172 C 448.91576 493.02468 454.78829 495.67324 460.08203 497.51367 C 465.14635 499.27435 469.59452 500.19036 472.06445 500.19336 L 491.71094 470.3418 L 483.87305 444.23047 L 483.0918 441.625 L 480.90039 434.32422 C 480.84189 434.13009 480.87474 433.95028 480.83594 433.76367 L 451.61719 425.22656 z M 579.86523 428.44336 L 548.42188 436.03711 L 535.84375 471.67773 C 535.83525 471.70173 535.81955 471.72229 535.81055 471.74609 L 556.77148 501.87109 C 564.14331 501.21167 575.2309 497.14212 581.9043 493.79883 C 594.77906 475.92394 595.53775 464.01485 596.08203 456.19727 C 593.52051 448.32835 589.37726 438.26891 582.87891 431.26758 L 582.75391 431.13281 L 582.61133 430.98242 C 581.74369 430.06748 580.81478 429.23839 579.86523 428.44336 z M 420.28125 440.90234 C 419.63951 445.31033 419.20703 449.78722 419.20703 454.37305 C 419.20703 476.71217 427.13328 497.14547 440.23438 513.20508 C 439.009 505.42141 438.55546 496.89884 441.25586 491.13281 C 437.69643 486.35172 429.37706 472.92032 429.28516 452.30273 C 425.70316 448.9031 422.7968 445.38311 420.28125 440.90234 z M 605.62109 450.05273 C 604.11482 452.128 602.31534 454.11714 599.9082 455.91211 C 599.33691 463.15376 597.78899 478.24954 584.34961 495.12891 C 586.11948 500.37833 585.73474 506.82662 584.48438 513.56641 C 597.7655 497.4545 605.8125 476.88112 605.8125 454.37305 C 605.8125 452.91823 605.68919 451.49216 605.62109 450.05273 z M 495.06641 473.01953 L 474.41016 501.87109 C 476.16106 508.8568 484.50011 519.88518 491 526.60938 C 505.03409 531.24397 520.93296 530.98072 533.66797 528.29102 C 540.31744 521.95513 547.1073 513.65793 551.79492 503.56055 L 533.44531 473.86133 C 533.05095 473.94502 532.64612 473.99242 532.24414 473.98242 L 532.24219 473.98242 L 495.06641 473.01953 z M 491.72852 530.42773 C 487.03748 535.36851 480.93608 537.71902 473.875 539.12891 C 485.66533 544.51156 498.69816 547.64062 512.50977 547.64062 C 525.79653 547.64063 538.3574 544.73104 549.79492 539.72656 C 542.81539 538.50741 536.45851 535.98642 533.08594 532.05078 C 525.78939 533.75815 518.42981 534.87512 511.22266 534.54688 C 504.56276 534.24427 498.14634 532.6447 491.72852 530.42773 z "
     style="color:#000000;font-style:normal;font-variant:normal;font-weight:normal;font-stretch:normal;font-size:medium;line-height:normal;font-family:sans-serif;font-variant-ligatures:normal;font-variant-position:normal;font-variant-caps:normal;font-variant-numeric:normal;font-variant-alternates:normal;font-variant-east-asian:normal;font-feature-settings:normal;font-variation-settings:normal;text-indent:0;text-align:start;text-decoration:none;text-decoration-line:none;text-decoration-style:solid;text-decoration-color:#000000;letter-spacing:normal;word-spacing:normal;text-transform:none;writing-mode:lr-tb;direction:ltr;text-orientation:mixed;dominant-baseline:auto;baseline-shift:baseline;text-anchor:start;white-space:normal;shape-padding:0;shape-margin:0;inline-size:0;clip-rule:nonzero;display:inline;overflow:visible;visibility:visible;isolation:auto;mix-blend-mode:normal;color-interpolation:sRGB;color-interpolation-filters:linearRGB;solid-color:#000000;solid-opacity:1;vector-effect:none;fill:#ffffff;fill-opacity:1;fill-rule:evenodd;stroke:none;stroke-width:1.00157;stroke-linecap:butt;stroke-linejoin:miter;stroke-miterlimit:4;stroke-dasharray:none;stroke-dashoffset:0;stroke-opacity:1;color-rendering:auto;image-rendering:auto;shape-rendering:auto;text-rendering:auto;enable-background:accumulate;stop-color:#000000"
     id="path981" />
  <g
     id="g1172">
    <path
       style="fill:#ffffff;stroke:none;stroke-width:1px;stroke-linecap:butt;stroke-linejoin:miter;stroke-opacity:1"
       d="m 207.65412,446.42256 c -6.68783,-27.91184 -33.22815,-48.05531 -61.90199,-67.36393 16.87609,0.91866 37.09086,7.68001 73.19,42.239 36.38009,-8.11319 60.30511,-5.44137 82.29323,-1.09238 -19.89416,2.40808 -36.96571,2.67739 -51.61628,7.20967 -15.74599,4.87115 -29.11604,11.72226 -41.96496,19.00764 z"
       id="path975"
       sodipodi:nodetypes="ccccsc" />
    <path
       style="fill:#165898;fill-opacity:1;stroke:none;stroke-width:1px;stroke-linecap:butt;stroke-linejoin:miter;stroke-opacity:1"
       d="m 121.7196,379.42276 c 4.4774,-13.72005 18.19851,-24.35886 34.22816,-34.22816 -15.51254,3.78314 -30.48041,10.83438 -44.05965,26.21732 -24.84329,-0.18448 -36.09331,4.57405 -50.97811,8.01084 18.68688,-2.21618 37.38304,-4.41937 60.8096,0 z"
       id="path977"
       sodipodi:nodetypes="ccccc" />
  </g>
  <g
     style="fill:#0063a3;fill-opacity:1"
     id="g1015">
    <path
       inkscape:connector-curvature="0"
       d="m 332.23001,81.681403 -1.38744,-20.881339 10.47254,-0.602021 2.31435,40.215727 -10.19917,0.58619 -9.26081,-23.502475 1.65616,23.939275 -10.47281,0.60251 -2.31421,-40.215728 10.36038,-0.596097 z"
       style="fill:#0063a3;fill-opacity:1;fill-rule:evenodd;stroke:#ffffff;stroke-width:1.23495"
       id="path988" />
    <path
       inkscape:connector-curvature="0"
       d="m 294.80051,98.86991 -5.58766,1.22521 0.97133,7.04755 -11.39766,2.47771 -2.6571,-40.566173 17.29536,-3.76652 14.90975,37.897573 -11.48487,2.59255 z m -6.58791,-5.300049 4.83311,-1.063219 -6.98959,-18.981877 z"
       style="fill:#0063a3;fill-opacity:1;fill-rule:evenodd;stroke:#ffffff;stroke-width:1.23495"
       id="path990" />
    <path
       inkscape:connector-curvature="0"
       d="m 258.09602,95.12464 c 3.23269,-0.635264 6.44537,0.107421 7.58902,1.712189 0.86425,1.212624 1.81533,4.012351 2.33114,5.430431 l 3.8373,10.55082 -10.54848,3.83295 -5.29741,-14.56454 c -0.67983,-1.86936 -2.46416,-3.044197 -4.61756,-2.272997 l -1.85856,0.667367 6.56975,18.06201 -10.50254,3.81628 -13.70361,-37.6789 8.78924,-3.19398 c 3.55927,-1.293494 7.60692,-3.024204 11.3527,-3.640331 6.0101,-0.988148 7.48749,1.89641 9.35284,7.025446 1.89426,4.937283 -0.0261,7.970748 -3.29383,10.253255 z m -13.71818,-8.81394 3.31149,9.10126 2.17712,-0.816151 c 1.88796,-0.707743 2.55112,-2.38252 2.0048,-3.884559 l -1.09646,-3.013834 c -0.49493,-1.360663 -1.67588,-3.065197 -4.10781,-2.200521 z"
       style="fill:#0063a3;fill-opacity:1;fill-rule:evenodd;stroke:#ffffff;stroke-width:1.23495"
       id="path992" />
    <path
       inkscape:connector-curvature="0"
       d="m 219.87822,117.40364 -2.32194,1.30551 -2.56608,-4.55753 12.87855,-7.24206 10.62305,18.79023 -6.63499,3.7319 -2.67527,-2.12067 c -1.0115,3.82633 -3.1899,6.3054 -5.77527,7.79031 -5.18837,2.98057 -10.37268,2.82542 -14.39078,-2.12454 -1.19345,-1.47109 -2.27155,-3.51018 -3.20461,-5.16908 l -5.48656,-9.75465 c -1.207,-2.14619 -2.88929,-5.10606 -3.47276,-7.49166 -0.59882,-2.44906 -0.28665,-4.69052 0.88659,-6.84961 1.51884,-2.79633 4.62252,-5.11131 7.32227,-6.629081 2.60415,-1.464079 5.93837,-3.081058 8.99566,-3.152684 4.25951,-0.09976 7.04622,1.842616 9.1625,5.605192 l 2.06218,3.662443 -10.48331,5.89501 -3.40589,-6.05543 c -0.48059,-0.85452 -1.71063,-1.39645 -3.06134,-0.65236 -1.46369,0.80643 -1.73606,1.98295 -1.25748,2.83372 l 12.55129,22.41901 c 0.53969,0.95942 1.86153,1.14941 3.08973,0.46368 1.32006,-0.73731 2.11982,-1.879 1.29946,-3.33757 z"
       style="fill:#0063a3;fill-opacity:1;fill-rule:evenodd;stroke:#ffffff;stroke-width:1.23495"
       id="path994" />
    <path
       inkscape:connector-curvature="0"
       d="m 367.24724,96.243045 0.80822,-3.878198 4.70488,-30.161642 11.55221,0.701128 -9.33572,39.707777 -17.09893,-1.00168 -3.66384,-40.39971 11.79133,0.713139 0.87978,30.567864 z"
       style="fill:#0063a3;fill-opacity:1;fill-rule:evenodd;stroke:#ffffff;stroke-width:1.23495"
       id="path996" />
    <path
       inkscape:connector-curvature="0"
       d="m 399.39457,65.161592 11.51557,2.687149 -9.1494,39.259929 -11.51635,-2.68673 z"
       style="fill:#0063a3;fill-opacity:1;fill-rule:evenodd;stroke:#ffffff;stroke-width:1.23495"
       id="path998" />
    <path
       inkscape:connector-curvature="0"
       d="m 425.76539,105.27935 8.10279,2.60649 -2.24925,6.97494 -19.3798,-6.09675 12.34451,-38.645166 11.23594,3.619251 z"
       style="fill:#0063a3;fill-opacity:1;fill-rule:evenodd;stroke:#ffffff;stroke-width:1.23495"
       id="path1000" />
    <path
       inkscape:connector-curvature="0"
       d="m 453.76631,117.20421 7.77977,3.45278 -2.97839,6.69636 -18.62174,-8.12177 16.3848,-37.113987 10.78743,4.792875 z"
       style="fill:#0063a3;fill-opacity:1;fill-rule:evenodd;stroke:#ffffff;stroke-width:1.23495"
       id="path1002" />
    <path
       inkscape:connector-curvature="0"
       d="m 493.60931,109.93515 -4.15222,7.22749 7.21741,4.22494 -3.50899,5.9805 -7.27478,-4.25846 -5.049,8.6264 8.31019,4.86425 -3.63895,6.23676 -18.37095,-10.67958 20.14236,-34.50644 17.96594,10.43241 -3.7257,6.48474 z"
       style="fill:#0063a3;fill-opacity:1;fill-rule:evenodd;stroke:#ffffff;stroke-width:1.23495"
       id="path1004" />
  </g>
  <g
     style="stroke:#0063a3;stroke-opacity:1;stroke-width:3.5;stroke-miterlimit:4;stroke-dasharray:none"
     id="g1026">
    <path
       id="path25"
       style="fill:#ffffff;fill-rule:evenodd;stroke:#0063a3;stroke-width:3.5;stroke-miterlimit:4;stroke-dasharray:none;stroke-opacity:1"
       d="m 402.37225,216.97345 h -37.0299 V 208.275 c 0,-10.89386 -6.65025,-15.11663 -12.04956,-15.25591 -5.14904,-0.13315 -12.39246,1.76165 -12.52742,12.02036 1.09044,10.69329 0.42896,12.24004 7.28818,19.25953 5.5057,4.71992 14.56302,8.55234 19.18965,10.85298 14.74239,7.33003 32.33699,15.14283 37.43283,32.51381 1.91142,6.51573 1.67741,10.60534 1.67741,17.36729 0,10.04352 -0.31579,20.78786 -8.29299,28.71216 -10.5819,10.51162 -28.67458,12.19621 -42.36015,12.19621 -12.69409,0 -31.30126,-0.73114 -42.27339,-7.87318 -11.47358,-7.46874 -11.43167,-18.06326 -11.43167,-31.11022 v -13.99014 h 39.0615 v 18.82801 c 0,8.16982 2.56991,14.9933 11.75634,14.68968 10.50087,-0.10726 10.76921,-4.62227 10.77332,-13.33923 10e-4,-2.6947 0.0388,-4.21408 -0.0374,-6.96916 -0.44664,-16.12177 -7.33261,-19.35208 -20.44741,-26.65477 -7.85983,-4.37614 -19.87575,-11.9276 -27.06794,-17.43805 -9.06759,-6.94679 -14.6511,-15.0034 -14.44551,-26.83917 0.0796,-4.60285 -0.46541,-11.16985 0.26215,-15.7193 1.93782,-12.11874 9.57154,-19.00572 18.04594,-22.62438 9.23859,-3.9455 21.67419,-5.26009 31.36925,-5.26009 10.08939,0 20.58131,0.7414 30.32781,3.55443 7.31778,2.11196 14.54603,6.79086 18.03494,13.09838 3.71091,6.70911 2.74416,18.21785 2.74406,25.70681 z"
       inkscape:connector-curvature="0"
       sodipodi:nodetypes="ccsccccsssscsccsccccccccsccsc" />
    <path
       id="path27"
       style="fill:#ffffff;fill-rule:evenodd;stroke:#0063a3;stroke-width:3.5;stroke-miterlimit:4;stroke-dasharray:none;stroke-opacity:1"
       d="m 543.86319,228.2285 h 39.82203 v -21.25751 c 0,-10.72564 -4.50839,-20.53528 -13.80324,-26.46062 -11.44448,-7.29548 -28.03759,-7.52279 -41.25782,-7.52279 -11.7869,0 -25.83074,1.89337 -36.13251,7.84677 l -0.0771,0.0445 c -17.85098,10.104 -16.88526,29.09253 -16.88526,46.92397 v 47.36502 c 0,16.2206 -0.45265,34.10586 14.06599,44.93447 7.67169,5.72069 16.84328,7.26358 26.29054,7.18225 7.94558,-0.067 16.41914,-1.33354 23.58078,-4.98511 6.23892,-3.18023 10.5813,-6.87482 16.31599,-14.26957 l 5.3184,15.80918 23.69521,-0.0648 -8.7e-4,-75.18411 h -50.36047 v 12.86254 h 10.14778 v 27.72178 c 0,8.28083 -6.36684,15.44758 -15.16675,14.87225 -8.7866,-0.57392 -11.56264,-7.83666 -11.56264,-15.9358 V 210.3334 c 0,-8.01865 3.54885,-14.54284 11.89696,-14.65834 8.77616,-0.12106 14.11207,6.49214 14.11207,14.82454 z"
       inkscape:connector-curvature="0"
       sodipodi:nodetypes="ccscsscssccccccccccscssccc" />
    <path
       id="path29"
       style="fill:#ffffff;fill-rule:evenodd;stroke:#0063a3;stroke-width:3.5;stroke-miterlimit:4;stroke-dasharray:none;stroke-opacity:1"
       d="m 231.08581,175.69913 h -41.21158 v 111.02599 c 0,4.26004 -0.35766,8.07569 -3.16874,11.5873 -2.7637,3.45215 -5.8471,5.01791 -10.21324,4.95445 -4.0868,-0.0596 -6.87307,-1.62466 -9.45433,-4.84467 -2.8956,-3.61281 -3.06622,-7.35169 -3.07011,-11.67992 V 175.69913 H 122.57515 V 276.9495 c 0,5.6816 -0.49416,12.12805 0.29201,17.72202 1.35622,9.65089 4.87787,17.12079 13.05782,22.7688 12.65034,8.73636 28.20261,9.46907 43.08302,9.46907 8.75778,0 18.37371,-0.66382 26.68152,-3.6081 13.2417,-4.69101 20.98579,-11.89134 23.96505,-25.56728 1.33016,-6.10554 1.43124,-12.74955 1.43124,-18.97732 z"
       inkscape:connector-curvature="0"
       sodipodi:nodetypes="ccscccsccsscscssc" />
    <circle
       style="fill:#ffffff;fill-opacity:1;stroke:#0063a3;stroke-width:3.5;stroke-linecap:round;stroke-linejoin:round;stroke-miterlimit:4;stroke-dasharray:none;stroke-opacity:1"
       id="path1017"
       cx="267.82816"
       cy="310.04886"
       r="21.686184" />
    <circle
       r="21.686184"
       cy="310.04886"
       cx="439.82816"
       id="circle1019"
       style="fill:#ffffff;fill-opacity:1;stroke:#0063a3;stroke-width:3.5;stroke-linecap:round;stroke-linejoin:round;stroke-miterlimit:4;stroke-dasharray:none;stroke-opacity:1" />
  </g>
  <g
     id="g1168">
    <path
       style="fill:#0063a3;stroke-width:1.07362;fill-opacity:1"
       d="m 48.842,402.54025 c -0.8096,-4.64983 -1.3382,-8.594 -1.1747,-8.76483 0.1636,-0.17083 1.1207,2.21423 2.1269,5.30013 7.0331,21.5685 23.6279,42.59618 46.7748,59.26955 12.4551,8.97179 40.5063,23.10659 55.9129,28.17415 15.0711,4.95718 34.6419,8.87357 51.6118,10.32823 28.8859,2.47611 62.4259,-3.95703 76.4097,-14.65576 6.2405,-4.77451 8.6788,-9.18692 12.1472,-21.98214 3.5554,-13.11627 5.2778,-16.12357 9.2346,-16.12357 5.5272,0 8.4538,7.4396 5.7415,14.59526 -1.7461,4.60663 -0.1879,4.47018 1.7375,-0.15216 2.462,-5.91056 1.4852,-12.84621 -3.1529,-22.3872 -4.3836,-9.01746 -4.8243,-12.40201 -1.9541,-15.00752 3.1067,-2.82021 5.5837,-2.12214 10.4145,2.93502 7.107,7.44012 8.4738,17.54152 4.0768,30.13057 -1.8982,5.43475 -1.2378,5.9523 1.923,1.50709 2.2852,-3.21388 2.5222,-4.64434 2.4599,-14.84686 -0.084,-13.71565 -0.9127,-15.5923 -13.2505,-30.00248 -4.7608,-5.5605 -8.656,-10.90728 -8.656,-11.88172 0,-2.79687 2.2551,-4.34918 6.3782,-4.39047 l 3.8055,-0.0381 -2.6799,-1.5238 c -1.474,-0.8381 -8.2274,-3.83855 -15.0077,-6.66767 -9.8498,-4.10995 -13.4589,-6.23968 -17.9556,-10.59572 -3.0953,-2.99853 -5.6278,-6.23669 -5.6278,-7.19592 0,-2.47618 2.9573,-5.12572 5.7044,-5.11071 5.8706,0.032 21.7324,5.81325 25.6117,9.33474 1.2007,1.08997 1.9151,1.2666 1.9151,0.47351 0,-2.84219 4.9312,-3.68507 10.5693,-1.80663 11.9098,3.96794 20.7913,19.0381 20.6421,35.02539 l -0.07,7.49786 3.4568,-0.004 3.4569,-0.004 0.2322,-7.79154 c 0.3792,-12.72852 -2.0285,-19.27187 -10.0766,-27.38449 -8.6326,-8.70194 -10.3968,-11.41927 -9.5668,-14.73616 1.4076,-5.62548 7.6427,-4.42357 14.7122,2.83603 7.8756,8.08728 11.8331,20.20885 9.6931,29.68924 -0.8159,3.61435 -0.7511,4.53305 0.2915,4.13175 4.5072,-1.73488 5.9422,7.10214 1.8609,11.45979 -1.9925,2.12745 -2.1466,2.76218 -0.9186,3.78443 1.1632,0.96829 1.7302,0.66735 2.6792,-1.42185 1.4389,-3.16778 5.8065,-4.50928 9.3734,-2.87907 1.4184,0.64822 4.7262,4.10458 7.3508,7.6808 3.1293,4.26397 5.0471,6.0558 5.5711,5.20534 0.4394,-0.71328 1.0116,-4.9803 1.2714,-9.48225 0.413,-7.157 0.1352,-8.85379 -2.2117,-13.50552 -6.0884,-12.06772 -5.628,-18.76072 1.2906,-18.76072 10.028,0 14.2164,21.67464 6.9969,36.20744 l -3.1744,6.38983 3.1897,1.55083 c 8.0475,3.91262 9.847,18.03216 4.446,34.88416 -4.1447,12.93236 -9.521,21.24406 -21.5713,33.34898 -16.5265,16.60129 -35.0893,27.66935 -60.2833,35.94386 -27.6065,9.06681 -53.6184,12.0921 -83.0056,9.65388 l 1e-4,-5.7e-4 C 169.863,536.65014 120.4933,517.74506 85.7579,489.53229 78.292782,483.46897 53.777569,460.77025 51.51251,457.44543 l -9.623444,-29.23005 z"
       id="path1076" />
    <path
       style="fill:#0063a3;stroke-width:1.07362;fill-opacity:0.99215686"
       d="m 311.6101,353.49462 c -4.0893,-5.05876 -10.3851,-15.86723 -10.3851,-17.82888 0,-0.69143 0.9648,-2.22488 2.144,-3.40768 3.3916,-3.40205 9.3241,-2.79279 18.4171,1.89145 6.1574,3.17193 8.5962,5.16543 11.3302,9.2613 1.9161,2.87063 3.4839,6.14758 3.4839,7.28209 0,2.77208 -2.7711,3.67272 -5.9875,1.94605 -2.4023,-1.28957 -2.9279,-1.11779 -6.1426,2.00766 -4.9787,4.84037 -8.2531,4.54705 -12.86,-1.15199 z"
       id="path1094" />
    <path
       style="fill:#ffffff;stroke-width:1.07362"
       d="m 75.124764,474.83616 c 1.182674,1.11127 2.585675,2.44537 4.240236,4.02342 6.026623,5.74793 16.081,13.8971 22.3429,18.10919 29.9722,20.16071 72.6167,35.38026 110.7689,39.53268 14.8304,1.61412 41.2764,1.36624 54.4402,-0.51027 49.7158,-7.08704 92.9112,-32.3865 109.324,-64.03087 5.3286,-10.2737 7.5261,-18.61148 7.5261,-28.55533 0,-6.77543 -0.3509,-8.17441 -2.7752,-11.06441 -2.8713,-3.42289 -6.5512,-4.27577 -8.7842,-2.03591 -0.6977,0.69982 -1.4263,1.06273 -1.6191,0.80645 -0.1928,-0.25627 -1.8719,-2.8853 -3.7312,-5.84229 -3.8296,-6.09054 -8.4043,-11.29033 -9.933,-11.29033 -1.8253,0 -5.3165,4.23659 -5.3165,6.45162 0,2.73146 -0.1566,2.71181 -5.0443,-0.63293 -3.1744,-2.17224 -4.9552,-2.66628 -8.1099,-2.24984 -5.8616,0.7738 -7.2134,-1.08176 -7.2134,-9.9021 0,-3.99021 -0.7281,-9.71416 -1.6179,-12.71992 -3.3706,-11.38488 -12.4736,-20.67031 -20.3071,-20.71408 l -3.1655,-0.0177 4.0925,4.20401 c 2.2509,2.31221 3.7675,4.73157 3.3702,5.37634 -1.3501,2.19132 -6.0501,1.2553 -8.4487,-1.68257 -5.3252,-6.52259 -8.6136,-8.89298 -15.9935,-11.52863 -10.3375,-3.69196 -14.2087,-4.03595 -14.2087,-1.26257 0,3.13209 7.4421,8.24833 19.4045,13.34004 15.68,6.67409 21.3306,9.99211 21.3306,12.52538 0,1.79763 -0.8271,2.19951 -5.0919,2.47401 -3.3191,0.21363 -5.0919,0.81853 -5.0919,1.73744 0,0.77534 3.4139,5.22463 7.5864,9.88732 11.942,13.34508 13.0827,15.81302 13.6459,29.52333 0.4243,10.32978 0.2192,12.12139 -1.8867,16.48504 -2.5906,5.3679 -6.8563,9.12016 -16.6656,14.65975 l -6.4319,3.63222 3.113,-3.71781 c 3.0724,-3.66922 3.082,-3.72242 0.7385,-4.07003 -3.2332,-0.47958 -3.6825,-2.26744 -1.7411,-6.92816 2.046,-4.91191 2.0699,-7.32031 0.099,-9.98723 -1.3723,-1.85699 -1.7223,-1.90931 -3.1727,-0.47433 -0.8967,0.88709 -2.9104,6.45161 -4.4751,12.36559 -1.5646,5.91398 -3.7264,12.49205 -4.804,14.61793 -6.8617,13.5377 -33.4686,23.78378 -65.868,25.36524 -51.8439,2.53057 -112.22195,-19.34572 -147.9475,-53.6044 -13.561043,-13.00423 -22.224591,-24.72649 -26.440325,-35.86149 -8.023544,0 10.350264,58.8127 23.861989,63.5662 z"
       id="path1152" />
    <path
       style="fill:#0063a3;stroke-width:1.07362;fill-opacity:1"
       d="m 352.6798,400.46083 c 0,-0.33794 0.7236,-1.34025 1.608,-2.22735 2.273,-2.27994 2.0071,-5.04172 -1.072,-11.13671 -1.4739,-2.91766 -2.6799,-6.06193 -2.6799,-6.98724 0,-4.26518 8.4339,-2.4543 10.5807,2.2718 1.6718,3.68042 1.5157,10.50469 -0.3422,14.96504 -1.2913,3.09979 -2.1051,3.7289 -4.8239,3.7289 -1.7989,0 -3.2707,-0.2765 -3.2707,-0.61444 z"
       id="path1086" />
    <path
       style="fill:#ffffff;stroke-width:1.07362"
       d="m 358.0715,383.93058 c -0.6485,-1.21558 -1.657,-2.21015 -2.241,-2.21015 -0.584,0 -0.248,1.57258 0.7465,3.49462 0.9946,1.92205 2.003,2.91662 2.241,2.21015 0.238,-0.70646 -0.098,-2.27904 -0.7465,-3.49462 z"
       id="path1088" />
    <path
       style="fill:#ffffff;stroke-width:1.07362"
       d="m 340.4243,378.00871 c -3.1364,-6.43023 -10.1895,-13.49258 -13.475,-13.49258 -1.1774,0 -2.1408,0.4571 -2.1408,1.01576 0,1.53272 17.6307,20.26157 18.0597,19.18451 0.2046,-0.51391 -0.8951,-3.53236 -2.4439,-6.70769 z"
       id="path1084" />
    <path
       style="fill:#ffffff;stroke-width:1.07362"
       d="m 347.1075,408.10291 c 1.4571,-3.20782 -0.2507,-4.80145 -1.8777,-1.7521 -0.6192,1.16048 -1.1258,2.62564 -1.1258,3.25592 0,2.08213 1.7793,1.19127 3.0035,-1.50382 z"
       id="path1082" />
    <path
       style="fill:#ffffff;stroke-width:1.07362"
       d="m 380.4384,403.76344 c 0.2011,-8.57716 -5.0335,-19.33036 -8.3954,-17.24619 -1.8014,1.11671 -0.8958,5.31563 3.1315,14.51966 1.778,4.06343 3.2808,8.51664 3.3396,9.896 0.1066,2.50034 0.1095,2.4998 0.9651,-0.18022 0.4721,-1.4785 0.9037,-4.62366 0.9592,-6.98925 z"
       id="path1080" />
    <path
       style="fill:#ffffff;stroke-width:1.07362"
       d="m 317.0703,443.24252 c 0.5148,-8.91967 -0.6903,-12.98719 -5.1825,-17.49325 -2.4315,-2.43898 -6.3749,-2.78566 -6.3749,-0.56044 0,0.84311 1.9296,5.53526 4.2879,10.42699 3.055,6.33667 4.2879,10.2863 4.2879,13.7359 0,8.32853 2.4365,3.33626 2.9816,-6.1092 z"
       id="path1078" />
    <path
       style="fill:#0063a3;stroke-width:1.07362;fill-opacity:1"
       d="m 211.1791,587.05145 c -20.2626,-1.48836 -60.4821,-8.0719 -65.3802,-10.70208 -3.0945,-1.66165 -26.8197,-26.40696 -34.1358,-35.60339 -9.5003,-11.94204 -22.0161,-29.95161 -21.3084,-30.66156 0.3025,-0.30337 2.9996,0.69358 5.9937,2.21545 19.1149,9.71601 60.0889,24.76815 83.2074,30.56695 31.5443,7.91221 51.989,10.38066 78.6288,9.49344 20.8888,-0.69569 33.2754,-2.80852 49.1496,-8.38364 18.9875,-6.66853 38.6772,-19.65339 47.1757,-31.11118 3.3267,-4.48503 4.1271,-5.08536 4.4028,-3.3022 0.8611,5.56927 -9.1765,21.27231 -21.4977,33.63136 -31.5389,31.63582 -77.1035,47.46583 -126.2359,43.85685 z"
       id="path1056" />
    <path
       style="fill:#ffffff;stroke-width:1.07362"
       d="m 322.8501,351.83452 c 3.509,-4.18297 4.8042,-4.79706 7.2961,-3.45932 3.8589,2.07156 2.4934,-1.11743 -2.5568,-5.97124 -4.8802,-4.69045 -15.2291,-9.43893 -19.295,-8.85328 -1.223,0.17616 -2.375,1.11761 -2.56,2.09212 -0.6554,3.45155 10.2396,19.19591 13.2835,19.19591 0.7216,0 2.4461,-1.35189 3.8322,-3.00419 z"
       id="path1096" />
  </g>
  <path
     d="M 349.67969 38.705078 A 314.39434 314.39477 0 1 0 664.07422 353.09961 A 314.39434 314.39477 0 0 0 349.67969 38.705078 z M 348.9707 50.101562 A 303 303.00002 0 0 1 349.67773 50.101562 A 303 303.00002 0 0 1 652.67773 353.10156 A 303 303.00002 0 1 1 348.9707 50.101562 z "
     style="fill:#ffffff;fill-rule:evenodd;stroke:none;stroke-width:1.20866"
     id="path4" />
</svg>
