<?xml version="1.0" encoding="UTF-8" standalone="no"?>
<svg
   xmlns:dc="http://purl.org/dc/elements/1.1/"
   xmlns:cc="http://creativecommons.org/ns#"
   xmlns:rdf="http://www.w3.org/1999/02/22-rdf-syntax-ns#"
   xmlns:svg="http://www.w3.org/2000/svg"
   xmlns="http://www.w3.org/2000/svg"
   xmlns:sodipodi="http://sodipodi.sourceforge.net/DTD/sodipodi-0.dtd"
   xmlns:inkscape="http://www.inkscape.org/namespaces/inkscape"
   inkscape:version="1.0 (4035a4f, 2020-05-01)"
   sodipodi:docname="Logo Avoine Olympique Chinon Cinais.svg"
   width="211.66667mm"
   height="183.42186mm"
   viewBox="0 0 211.66667 183.42186"
   version="1.1"
   id="svg8">
  <sodipodi:namedview
     inkscape:current-layer="svg8"
     inkscape:window-maximized="0"
     inkscape:window-y="0"
     inkscape:window-x="0"
     inkscape:cy="56.166771"
     inkscape:cx="1489.5814"
     inkscape:zoom="0.18708867"
     showgrid="false"
     id="namedview840"
     inkscape:window-height="900"
     inkscape:window-width="1440"
     inkscape:pageshadow="2"
     inkscape:pageopacity="0"
     guidetolerance="10"
     gridtolerance="10"
     objecttolerance="10"
     borderopacity="1"
     bordercolor="#666666"
     pagecolor="#ffffff" />
  <defs
     id="defs2" />
  <metadata
     id="metadata5">
    <rdf:RDF>
      <cc:Work
         rdf:about="">
        <dc:format>image/svg+xml</dc:format>
        <dc:type
           rdf:resource="http://purl.org/dc/dcmitype/StillImage" />
        <dc:title />
      </cc:Work>
    </rdf:RDF>
  </metadata>
  <g
     style="stroke:none"
     transform="matrix(0.42585458,0,0,0.42585458,60.062441,26.913906)"
     id="g2307">
    <path
       style="fill:#101f69;fill-opacity:1;stroke:none;stroke-width:0.264583px;stroke-linecap:butt;stroke-linejoin:miter;stroke-opacity:1"
       d="m 268.5,209.125 28.125,6.5 -3.62489,14.87497 h 62.99988 L 327.5,265.98668 l 26,35.48698 H 203.41666 Z"
       id="path1077"
       sodipodi:nodetypes="cccccccc" />
    <path
       sodipodi:nodetypes="ccccccc"
       id="path1676"
       d="m 283.79552,240.0001 h 51.20455 l -19.00008,25.98658 19.00008,25.98685 H 221 l 53.42545,-14.91061 z"
       style="fill:#e5a300;fill-opacity:1;stroke:none;stroke-width:0.264583px;stroke-linecap:butt;stroke-linejoin:miter;stroke-opacity:1" />
    <path
       style="fill:#101f69;fill-opacity:1;stroke:none;stroke-width:0.264583px;stroke-linecap:butt;stroke-linejoin:miter;stroke-opacity:1"
       d="m -53.5398,209.125 -28.125,6.5 3.62489,14.87497 h -62.99988 l 28.49999,35.48671 -26,35.48698 H 11.54354 Z"
       id="path1706"
       sodipodi:nodetypes="cccccccc" />
    <path
       style="fill:#e5a300;fill-opacity:1;stroke:none;stroke-width:0.264583px;stroke-linecap:butt;stroke-linejoin:miter;stroke-opacity:1"
       d="m -68.83532,240.0001 h -51.20455 l 19.00008,25.98658 -19.00008,25.98685 H -6.0398 l -53.42545,-14.91061 z"
       id="path1710"
       sodipodi:nodetypes="ccccccc" />
  </g>
  <g
     style="stroke:none"
     transform="matrix(0.42585458,0,0,0.42585458,60.062441,26.913906)"
     id="g2410">
    <path
       d="m 107.48026,-63.199758 c -52.370558,9.116115 -139.424257,57.7952024 -190.425068,112.876313 -2.38547,26.816756 2.535632,74.742965 9.015471,103.783325 11.5766,51.88223 35.151687,93.37718 56.970166,124.09269 24.1833593,34.0447 77.09213,75.95566 124.439431,89.96246 47.3473,-14.0068 100.25556,-55.91776 124.43891,-89.96246 21.81848,-30.71551 45.39358,-72.21046 56.97016,-124.09269 6.47986,-29.04036 11.40095,-76.966569 9.01549,-103.783325 C 246.904,-5.4045556 159.85082,-54.083643 107.48026,-63.199758 Z"
       style="fill:#101f69;fill-opacity:1;stroke:none;stroke-width:0.264583px;stroke-linecap:butt;stroke-linejoin:miter;stroke-opacity:1"
       id="path1020" />
    <path
       id="path1650"
       style="fill:#ffffff;stroke:none;stroke-width:0.999999px;stroke-linecap:butt;stroke-linejoin:miter;stroke-opacity:1"
       d="m 406.22461,-194.86523 c -197.93597,34.45461 -504.279728,216.014166 -679.08594,401.51757 -4.29154,95.68539 10.1113,255.4033 35.96289,364.84961 46.90296,198.57014 112.64182,334.63432 199.257815,446.33395 97.734349,126.0378 257.355755,263.0298 443.865235,329.1973 186.50948,-66.1675 346.12893,-203.1595 443.86328,-329.1973 86.616,-111.69963 152.35481,-247.76381 199.25781,-446.33395 25.8516,-109.44631 40.2564,-269.16422 35.9648,-364.84961 C 910.50434,21.148936 604.16058,-160.41062 406.22461,-194.86523 Z"
       transform="scale(0.26458333)" />
    <path
       id="path1652"
       style="fill:#e5a300;fill-opacity:1;stroke:none;stroke-width:0.999999px;stroke-linecap:butt;stroke-linejoin:miter;stroke-opacity:1"
       d="m 406.22461,-168.86523 c -197.93597,34.45461 -480.658634,204.187994 -655.46484,389.6914 -4.29154,95.68539 2.55466,238.39549 28.40625,347.8418 46.90295,198.57014 110.75118,330.85307 197.367183,442.55273 97.734349,126.0378 243.181927,247.645 429.691407,313.8125 186.50948,-66.1675 331.9551,-187.7747 429.68945,-313.8125 86.616,-111.69966 150.46619,-243.98259 197.36914,-442.55273 25.8516,-109.44631 32.6958,-252.15641 28.4043,-347.8418 C 886.88129,35.322764 604.16058,-134.41062 406.22461,-168.86523 Z"
       transform="scale(0.26458333)" />
    <path
       id="path1654"
       style="fill:#ffffff;stroke:none;stroke-width:0.999999px;stroke-linecap:butt;stroke-linejoin:miter;stroke-opacity:1"
       d="m 406.22461,-148.86523 c -193.25904,39.13153 -466.627384,194.877448 -641.43359,380.38085 -4.29154,95.68539 1.21676,224.36619 27.06836,333.8125 46.90295,198.57015 108.07931,322.16753 194.695308,433.86719 97.734349,126.03779 250.531872,243.67919 419.669922,305.83789 169.13805,-62.1587 321.93362,-179.8001 419.66797,-305.83789 86.616,-111.69966 147.79236,-235.29704 194.69532,-433.86719 25.8516,-109.44631 31.3618,-238.12711 27.0703,-333.8125 C 872.85199,46.012218 599.48365,-109.7337 406.22461,-148.86523 Z"
       transform="scale(0.26458333)" />
    <path
       id="path1656"
       style="fill:#101f69;fill-opacity:1;stroke:none;stroke-width:0.999999px;stroke-linecap:butt;stroke-linejoin:miter;stroke-opacity:1"
       d="m 406.22461,-128.86523 c -184.7551,39.131534 -453.39976,191.88486 -621.5918,367.93945 -4.29154,95.68538 2.8112,212.99974 26.60352,322.91211 43.5623,201.24268 112.702358,325.50932 199.318358,437.20898 C 108.28904,1125.2331 251.11733,1221.5427 406.22461,1283.0332 561.33188,1221.5427 704.15823,1125.2331 801.89258,999.19531 888.50858,887.49565 957.65059,763.22901 1001.2129,561.98633 1025.0052,452.07396 1032.106,334.7596 1027.8145,239.07422 859.62242,63.01963 590.97971,-89.733696 406.22461,-128.86523 Z"
       transform="scale(0.26458333)" />
  </g>
  <g
     style="stroke:none"
     transform="matrix(0.42585458,0,0,0.42585458,60.062441,26.913906)"
     id="g2483">
    <path
       style="fill:#ca0000;fill-opacity:1;stroke:none;stroke-width:0.198225;stroke-linecap:round;stroke-linejoin:round;stroke-miterlimit:4;stroke-dasharray:none"
       d="M 705.58789,576.37695 V 1083.8574 C 762.35553,1029.4706 812.19735,967.30705 854.09766,899.53906 V 576.37695 Z"
       transform="scale(0.26458333)"
       id="path2477" />
    <path
       style="fill:#ca0000;fill-opacity:1;stroke:none;stroke-width:0.198225;stroke-linecap:round;stroke-linejoin:round;stroke-miterlimit:4;stroke-dasharray:none"
       d="m 406.35352,576.37695 v 692.61135 c 52.20859,-18.1336 101.8226,-41.5827 148.50781,-69.6113 V 576.37695 Z"
       transform="scale(0.26458333)"
       id="path2475" />
    <path
       style="fill:#ca0000;fill-opacity:1;stroke:none;stroke-width:0.198225;stroke-linecap:round;stroke-linejoin:round;stroke-miterlimit:4;stroke-dasharray:none"
       d="m 107.11914,576.37695 v 507.72655 c 45.27702,43.3433 94.95285,81.7427 148.50781,114.0996 V 576.37695 Z"
       transform="scale(0.26458333)"
       id="path2473" />
    <path
       style="fill:#ca0000;fill-opacity:1;stroke:none;stroke-width:0.198225;stroke-linecap:round;stroke-linejoin:round;stroke-miterlimit:4;stroke-dasharray:none"
       d="m -170.58984,576.37695 c 23.9743,113.85145 67.30514,222.63498 126.982418,319.98047 V 576.37695 Z"
       transform="scale(0.26458333)"
       id="rect2138" />
  </g>
  <g
     style="stroke:none"
     transform="matrix(0.42585458,0,0,0.42585458,60.062441,26.913906)"
     id="g2243">
    <g
       style="stroke:none"
       id="g1570">
      <path
         transform="scale(0.26458333)"
         d="m 35.90625,154.01562 -97.796875,21.73243 7.560547,4.72461 c -9.140137,32.28582 -17.428807,67.55002 -25.302734,104.26757 -8.562463,39.92831 -15.967628,90.26091 -24.777348,122.97657 l 40.630863,-12.28321 c -11.263064,-15.54935 -0.330616,-40.9924 2.978516,-63.03711 l 107.570312,-25.7246 c 18.630127,21.62163 30.670064,41.27727 29.431641,55.21874 L 165.82617,347.7168 C 150.36088,325.91723 135.77753,300.71632 120.64062,277.24805 93.873629,235.74848 66.423838,194.44359 35.90625,154.01562 Z m -67.976562,47.42579 64.140624,81.84765 -86.857421,21.04492 z"
         style="fill:#00ffff;stroke:none;stroke-width:0.999999px;stroke-linecap:butt;stroke-linejoin:miter;stroke-opacity:1"
         id="path928" />
      <path
         transform="scale(0.26458333)"
         id="path933"
         style="fill:#00ffff;stroke:none;stroke-width:0.999999px;stroke-linecap:butt;stroke-linejoin:miter;stroke-opacity:1"
         d="m 35.90625,154.01562 -97.796875,21.73243 7.560547,4.72461 c -9.140137,32.28582 -17.428807,67.55002 -25.302734,104.26757 -8.562463,39.92831 -15.967628,90.26091 -24.777348,122.97657 l 40.630863,-12.28321 c -11.263064,-15.54935 -0.330616,-40.9924 2.978516,-63.03711 l 107.570312,-25.7246 c 18.630127,21.62163 30.670064,41.27727 29.431641,55.21874 L 165.82617,347.7168 C 150.36088,325.91723 135.77753,300.71632 120.64062,277.24805 93.873629,235.74848 66.423838,194.44359 35.90625,154.01562 Z m -67.976562,47.42579 64.140624,81.84765 -86.857421,21.04492 z" />
      <path
         sodipodi:nodetypes="ccccsccsccscccc"
         id="path941"
         d="m -18.031223,48.878757 -7.083718,30.667834 c -2.250114,11.652709 -3.541865,23.544749 -7.677136,33.236939 l 21.629257,-6.65501 c -1.875228,-1.96089 -3.909679,-3.02958 -4.07502,-5.53836 -0.195285,-2.963133 1.79061,-8.161985 1.8912,-10.168881 l 24.395183,-5.833631 c 2.733275,4.029791 5.166042,6.005792 5.800095,9.252807 0.376603,1.928605 -0.568013,2.543096 -1.126236,5.975876 C 27.149233,97.284544 38.933334,95.406342 51.000077,94.0452 48.911894,92.353443 45.493918,89.911363 41.693151,83.456487 36.255602,74.221852 29.719166,64.811659 23.818251,55.691943 L 10.783378,37.299881 c -11.9127303,2.62465 -24.259002,5.195108 -34.383066,8.043341 z"
         style="fill:none;stroke:none;stroke-width:0.079375;stroke-linecap:butt;stroke-linejoin:miter;stroke-miterlimit:4;stroke-dasharray:none;stroke-opacity:1" />
      <path
         id="path943"
         d="M -6.9826795,60.104075 -10.518213,76.45592 3.1819805,73.052968 Z"
         style="fill:none;stroke:none;stroke-width:0.264583px;stroke-linecap:butt;stroke-linejoin:miter;stroke-opacity:1" />
      <path
         id="path945"
         d="m -5.3033009,67.219337 -1.1932425,5.038138 4.3310289,-1.060662 z"
         style="fill:none;stroke:none;stroke-width:0.264583px;stroke-linecap:butt;stroke-linejoin:miter;stroke-opacity:1" />
      <path
         transform="scale(0.26458333)"
         sodipodi:nodetypes="sccccccccccccsccccccccsc"
         d="m 217.39062,129.17969 c -43.67643,5.52287 -47.72743,34.60672 -46.05468,56.17578 L 184.1582,295.2832 c 8.57616,45.37515 34.74977,44.38236 55.50196,44.86133 35.81502,-2.62858 70.81692,-5.03657 103.41796,-5.52539 10.12269,0.30214 20.34669,0.45234 30.64649,0.24024 0.1225,-0.0144 0.25016,-0.0286 0.37305,-0.043 0.53983,0.0165 1.08892,0.0249 1.62695,0.043 l 0.0449,-0.23633 c 20.26517,-2.32903 44.86133,-5.14544 49.00781,-49.62696 l 2.46485,-110.64648 c -0.35603,-21.63089 -7.11534,-51.20734 -57.71576,-51.62561 -50.60042,-0.41827 -110.34455,1.25419 -152.13581,6.45569 z m 102.3711,20.40234 c 20.57334,0.26274 23.50809,10.71419 23.92578,27.73438 l 3.83594,105.16211 c 0.33166,11.75915 -0.8405,23.26452 -13.74043,26.66992 -16.56104,0.69808 -33.68737,1.22315 -49.58184,1.99023 -21.02854,1.67878 -22.45337,-11.76253 -23.36328,-25.60156 l -6.03711,-105.05859 c -0.94784,-13.65222 0.13576,-23.22359 11.2168,-27.59375 14.64194,-0.91274 30.18888,-1.51459 43.80273,-2.7793 3.70305,-0.38884 7.00236,-0.56097 9.94141,-0.52344 z"
         style="fill:#ff00ff;stroke:none;stroke-width:0.3;stroke-linecap:butt;stroke-linejoin:miter;stroke-miterlimit:4;stroke-dasharray:none;stroke-opacity:1"
         id="path953" />
      <g
         style="stroke:none"
         id="g974">
        <path
           style="fill:#ff00ff;stroke:none;stroke-width:0.079375;stroke-linecap:butt;stroke-linejoin:miter;stroke-miterlimit:4;stroke-dasharray:none;stroke-opacity:1"
           d="M 178.9375,38.937498 179,47.062501 C 174.97454,44.481789 163.49853,43.887892 155,42.5 c -7.76238,-1.36341 -8.9554,1.436993 -9.4375,6.562499 l -2.9375,27.6875 c -0.35701,3.652074 -0.56209,7.222347 5,7.6875 9.67772,1.11665 22.71287,3.148966 25.6875,2.437501 L 170.5,94.5625 C 159.77278,92.426109 147.46015,91.241108 134.75,90.096181 129.35276,89.07957 122.47707,88.214625 122.1875,75.999998 l 1.375,-29.249999 C 124.05245,41.047059 126.36002,33.627925 138,34.0625 c 11.134,0.437484 26.76008,2.828569 40.9375,4.874998 z"
           id="path947"
           sodipodi:nodetypes="ccccccccccccc" />
        <path
           style="fill:none;stroke:none;stroke-width:0.079375;stroke-linecap:butt;stroke-linejoin:miter;stroke-miterlimit:4;stroke-dasharray:none;stroke-opacity:1"
           d="m 182.16838,36.415998 -0.0884,15.556349 c -3.81909,-2.61187 -7.52456,-3.69788 -12.46275,-4.507804 l -16.52862,-2.121321 c -3.44248,-0.512047 -4.14247,-0.265163 -4.46362,2.916816 l -3.04939,30.405589 c -0.22363,1.488811 -0.32146,2.441269 2.74237,2.917982 l 21.3428,2.443276 c 2.23182,0.255493 6.01293,-0.910689 8.26496,-1.472169 l -5.39169,15.46796 C 162.15352,95.869333 147.26738,94.049739 130.54958,92.365824 123.50806,90.244418 119.20832,84.8509 119.14748,77.516582 l 1.32583,-30.052039 c 0.41908,-4.598211 1.22003,-9.778898 5.65139,-13.062275 2.45917,-1.822098 6.57375,-3.943774 12.55661,-3.28957 14.26122,1.298824 28.53452,2.621817 43.48707,5.3033 z"
           id="path960"
           sodipodi:nodetypes="cccccccscccccscc" />
      </g>
      <path
         sodipodi:nodetypes="ccsccc"
         id="path964"
         d="m 181.625,55.1875 -4.5,24.374999 c -2.76194,0.690997 -5.65482,1.679671 -8.06028,1.376115 L 148.75,78.374998 l 3,-30.1875 c 10.30767,1.799057 22.12531,1.28874 29.875,7.000002 z"
         style="fill:none;stroke:none;stroke-width:0.079375;stroke-linecap:butt;stroke-linejoin:miter;stroke-miterlimit:4;stroke-dasharray:none;stroke-opacity:1" />
      <path
         sodipodi:nodetypes="ccccc"
         id="path966"
         d="m 73.18555,46.050329 11.578874,-0.441941 0.530331,30.140425 -10.076273,0.441941 z"
         style="fill:none;stroke:none;stroke-width:0.264583px;stroke-linecap:butt;stroke-linejoin:miter;stroke-opacity:1" />
      <path
         sodipodi:nodetypes="ccccccccc"
         id="path968"
         d="m 72.390055,43.045125 12.9047,-0.61872 c 2.182045,0.09512 2.348628,0.951477 2.563262,3.181983 l 0.707107,31.289473 c -0.01577,2.419125 -1.851309,1.805306 -3.18198,2.032932 l -9.987883,0.353554 c -2.908118,0.16028 -2.987243,-0.560754 -3.181982,-2.032931 L 70.180347,47.376153 c -0.277915,-2.035459 -0.296008,-3.919354 2.209708,-4.331028 z"
         style="fill:none;stroke:none;stroke-width:0.079375;stroke-linecap:butt;stroke-linejoin:miter;stroke-miterlimit:4;stroke-dasharray:none;stroke-opacity:1" />
      <path
         sodipodi:nodetypes="ccccccccscccccccccccccccccccccccccccccccc"
         id="path970"
         d="m -4.8613591,107.65701 -33.3224079,10.25305 c 2.33522,-7.137 5.802024,-12.89096 6.805904,-21.65515 2.627986,-16.852946 6.107263,-31.577665 9.722718,-45.96194 l -9.545942,-6.275572 c 14.303272,-3.899636 28.7621077,-7.254796 43.398679,-9.987883 11.057986,14.602408 20.632812,29.531739 30.228813,44.459336 L 39.244426,51.88396 c -0.931194,-7.255308 0.07267,-12.172711 3.409879,-16.691155 2.749995,-3.723386 8.741093,-6.911935 16.4775,-7.262087 14.291704,-1.189084 25.216518,-1.255872 37.211492,-1.679379 20.176383,0.01287 21.483563,12.534078 22.097083,14.760855 2.59755,-7.793896 9.18871,-14.80005 22.45065,-13.002079 16.80387,1.520058 31.12736,3.579331 44.10578,5.93101 l 0.17678,11.578873 c 5.0493,-7.857866 13.43602,-9.689819 24.48357,-6.717514 15.69965,3.968574 28.60521,7.77279 41.54252,11.578873 l -3.18198,23.246135 c -2.78971,-2.515584 -5.80425,-5.090636 -11.4021,-7.866562 l -20.6052,-5.755966 -7.14874,29.337684 19.26855,5.263267 c 4.83221,1.141254 10.09727,-0.146955 14.67258,-1.002656 L 231.48908,116.0539 c -10.69519,-3.60698 -20.10551,-6.83242 -41.58618,-11.58332 -4.062,-1.10431 -10.28196,-4.952537 -12.50749,-11.061551 l -2.82842,8.149181 c -14.20106,-2.52983 -28.40213,-4.776553 -42.60319,-5.656855 -6.35519,-0.548253 -12.97402,-5.320029 -15.29118,-13.435028 -2.47132,9.83386 -12.54503,12.188055 -16.17507,12.197593 -9.476284,0.05781 -18.952567,-0.342638 -28.428851,0.957604 -2.992617,0.142326 -6.172208,0.518369 -9.12761,0.614176 -2.273671,-0.0065 -4.289361,-0.179754 -6.359116,0.09723 -17.617615,1.958878 -30.152001,4.96202 -45.356653,7.43499 l 2.293353,-7.820379 c 0.514377,-1.38851 0.147379,-2.525198 -0.497416,-3.582516 l -3.2985388,-4.507009 -20.5944852,4.949748 -1.18926,5.744683 c -0.427242,1.900073 -0.127746,2.828733 1.565125,4.022103 z"
         style="fill:none;stroke:none;stroke-width:0.079375;stroke-linecap:butt;stroke-linejoin:miter;stroke-miterlimit:4;stroke-dasharray:none;stroke-opacity:1" />
      <g
         style="stroke:none"
         transform="rotate(8.0276347,99.910351,511.6328)"
         id="g980">
        <path
           sodipodi:nodetypes="ccccccccccccc"
           id="path976"
           d="M 178.9375,38.937498 179,47.062501 C 174.97454,44.481789 163.49853,43.887892 155,42.5 c -7.76238,-1.36341 -8.9554,1.436993 -9.4375,6.562499 l -2.9375,27.6875 c -0.35701,3.652074 -0.56209,7.222347 5,7.6875 9.67772,1.11665 22.71287,3.148966 25.6875,2.437501 L 170.5,94.5625 C 159.77278,92.426109 147.46015,91.241108 134.75,90.096181 129.35276,89.07957 122.47707,88.214625 122.1875,75.999998 l 1.375,-29.249999 C 124.05245,41.047059 126.36002,33.627925 138,34.0625 c 11.134,0.437484 26.76008,2.828569 40.9375,4.874998 z"
           style="fill:#ff00ff;stroke:none;stroke-width:0.079375;stroke-linecap:butt;stroke-linejoin:miter;stroke-miterlimit:4;stroke-dasharray:none;stroke-opacity:1" />
        <path
           sodipodi:nodetypes="cccccccscccccscc"
           id="path978"
           d="m 182.16838,36.415998 -0.0884,15.556349 c -3.81909,-2.61187 -7.52456,-3.69788 -12.46275,-4.507804 l -16.52862,-2.121321 c -3.44248,-0.512047 -4.14247,-0.265163 -4.46362,2.916816 l -3.04939,30.405589 c -0.22363,1.488811 -0.32146,2.441269 2.74237,2.917982 l 21.3428,2.443276 c 2.23182,0.255493 6.01293,-0.910689 8.26496,-1.472169 l -5.39169,15.46796 C 162.15352,95.869333 147.26738,94.049739 130.54958,92.365824 123.50806,90.244418 119.20832,84.8509 119.14748,77.516582 l 1.32583,-30.052039 c 0.41908,-4.598211 1.22003,-9.778898 5.65139,-13.062275 2.45917,-1.822098 6.57375,-3.943774 12.55661,-3.28957 14.26122,1.298824 28.53452,2.621817 43.48707,5.3033 z"
           style="fill:none;stroke:none;stroke-width:0.079375;stroke-linecap:butt;stroke-linejoin:miter;stroke-miterlimit:4;stroke-dasharray:none;stroke-opacity:1" />
      </g>
    </g>
    <path
       id="path1740"
       style="fill:#e5a300;fill-opacity:1;stroke:none;stroke-width:0.3;stroke-linecap:butt;stroke-linejoin:miter;stroke-miterlimit:4;stroke-dasharray:none;stroke-opacity:1"
       d="m 364.13281,99.216797 c -45.33533,1.600653 -86.62669,1.853483 -140.64258,6.347653 -29.23996,1.32341 -51.88366,13.37463 -62.27734,27.44727 -12.61307,17.07758 -16.40619,35.6643 -12.88672,63.08594 l 12.02539,100.55273 C 124.08321,240.23113 87.895525,183.80544 46.101562,128.61523 c -55.319324,10.32978 -109.967733,23.01122 -164.027342,37.75 l 36.080077,23.71875 c -13.664712,54.36577 -26.815497,110.01867 -36.748047,173.71485 -3.79419,33.1245 -16.89663,54.87121 -25.72266,81.8457 l 125.943363,-38.75195 -21.296875,-19.20899 c -6.398252,-4.51037 -7.530788,-8.01979 -5.916016,-15.20117 l 4.496094,-21.71289 77.837891,-18.70703 12.466797,17.0332 c 2.43702,3.99617 3.823008,8.29311 1.878906,13.54102 l -8.667969,29.55664 c 57.466401,-9.34666 104.841469,-20.69598 171.427739,-28.09961 7.82269,-1.04687 15.4398,-0.39371 24.0332,-0.36914 11.17002,-0.36211 23.18737,-1.78239 34.49805,-2.32031 35.81587,-4.9143 71.63334,-3.40065 107.44921,-3.61914 13.71984,-0.0361 51.79239,-8.93422 61.13282,-46.10157 8.75777,30.67087 33.7753,48.70521 57.79492,50.77735 53.6733,3.32712 107.34623,11.81929 161.01953,21.38086 l 10.68945,-30.79883 c 8.41146,23.08919 31.921,37.63287 47.27344,41.80664 81.18678,17.95616 116.75302,30.14662 157.17578,43.7793 l 42.75977,-84.85352 c -17.29251,3.23415 -37.19161,8.10442 -55.45508,3.79102 l -72.82617,-19.89258 27.01953,-110.88281 77.87695,21.7539 c 21.15723,10.49169 32.55192,20.2247 43.0957,29.73242 l 12.0254,-87.85937 C 900.5191,176.03277 851.74156,161.65363 792.4043,146.6543 c -41.75452,-11.23391 -73.45119,-4.3084 -92.53516,25.39062 l -0.66797,-43.76367 c -49.05229,-8.88824 -103.18853,-16.67091 -166.69922,-22.41602 -50.12386,-6.795477 -75.036,19.68338 -84.85351,49.14063 -2.31882,-8.41617 -7.25843,-55.740421 -83.51563,-55.789063 z M 573.54297,182.125 c 38.95812,6.79959 83.62389,4.87116 112.91406,26.45703 l -17.00781,92.12695 c -10.43883,2.61165 -21.37334,6.34847 -30.46484,5.20118 l -76.7793,-9.68946 z"
       transform="scale(0.26458333)" />
    <path
       style="fill:#101f69;fill-opacity:1;stroke:none;stroke-width:0.264583px;stroke-linecap:butt;stroke-linejoin:miter;stroke-opacity:1"
       d="m 45.53435,78.135299 c 0.82239,5.896889 5.00916,15.130253 14.76086,15.026018 l 39.33513,-1.679379 c 7.21879,-0.232403 15.16452,-5.791194 15.46564,-15.491488 l 0.88389,-30.558841 C 116.1348,38.493276 110.73839,28.981375 98.30452,29.344932 85.096046,28.561832 71.494935,29.741921 57.82033,31.289474 45.90964,31.878118 41.44795,41.56132 41.91043,47.376153 Z"
       id="path2209"
       sodipodi:nodetypes="ccccccccc" />
    <path
       id="path1726"
       style="fill:#ffffff;stroke:none;stroke-width:0.3;stroke-linecap:butt;stroke-linejoin:miter;stroke-miterlimit:4;stroke-dasharray:none;stroke-opacity:1"
       d="m 350.17578,122.66797 c -45.90509,0.11102 -96.2178,1.9604 -132.78516,6.51172 -43.67642,5.52287 -47.72743,34.60672 -46.05468,56.17578 L 184.1582,295.2832 c 8.57616,45.37516 34.74977,44.38236 55.50196,44.86133 35.81501,-2.62858 70.81693,-5.03657 103.41796,-5.52539 10.12269,0.30214 20.34669,0.45235 30.64649,0.24024 0.12249,-0.0144 0.25017,-0.0287 0.37305,-0.043 0.53983,0.0166 1.08892,0.0249 1.62695,0.043 l 0.0449,-0.23633 c 20.26517,-2.32902 44.86133,-5.14544 49.00781,-49.62696 l 2.46485,-110.64648 c -0.35603,-21.63089 -7.11441,-51.20673 -57.71485,-51.625 -6.32505,-0.0523 -12.79369,-0.0725 -19.35156,-0.0566 z m -30.41406,26.91406 c 20.57334,0.26275 23.50809,10.71419 23.92578,27.73438 l 3.83594,105.16211 c 0.33165,11.75915 -0.8403,23.26452 -13.74024,26.66992 -16.56104,0.69808 -33.68756,1.22315 -49.58203,1.99023 -21.02854,1.67878 -22.45337,-11.76253 -23.36328,-25.60156 l -6.03711,-105.05859 c -0.94784,-13.65222 0.13576,-23.2236 11.2168,-27.59375 14.64194,-0.91275 30.18889,-1.51459 43.80273,-2.7793 3.70306,-0.38884 7.00236,-0.56097 9.94141,-0.52344 z"
       transform="scale(0.26458333)" />
    <path
       d="m 9.5001952,40.749966 -25.8754232,5.750038 2.000395,1.250053 c -2.418328,8.54229 -4.611372,17.87261 -6.694682,27.587461 -2.265485,10.564365 -4.224768,23.881532 -6.555673,32.537552 l 10.750249,-3.24993 c -2.980019,-4.1141 -0.08747,-10.84591 0.788066,-16.678572 l 28.461311,-6.806301 c 4.929221,5.720723 8.114788,10.921278 7.787122,14.609958 L 43.87484,92.000069 C 39.782982,86.232266 35.924471,79.564525 31.919497,73.355212 24.837397,62.375118 17.57464,51.446533 9.5001952,40.749966 Z M -8.4852699,53.298039 8.4852699,74.953563 -14.495756,80.521698 Z"
       style="fill:#00ffff;stroke:none;stroke-width:0.264583px;stroke-linecap:butt;stroke-linejoin:miter;stroke-opacity:1"
       id="path1716" />
    <path
       sodipodi:nodetypes="ccccsccsccscccc"
       id="path1720"
       d="m -18.031223,48.878757 -7.083718,30.667834 c -2.250114,11.652709 -3.541865,23.544749 -7.677136,33.236939 l 21.629257,-6.65501 c -1.875228,-1.96089 -3.909679,-3.02958 -4.07502,-5.53836 -0.195285,-2.963133 1.79061,-8.161985 1.8912,-10.168881 l 24.395183,-5.833631 c 2.733275,4.029791 5.166042,6.005792 5.800095,9.252807 0.376603,1.928605 -0.568013,2.543096 -1.126236,5.975876 C 27.149233,97.284544 38.933334,95.406342 51.000077,94.0452 48.911894,92.353443 45.493918,89.911363 41.693151,83.456487 36.255602,74.221852 29.719166,64.811659 23.818251,55.691943 L 10.783378,37.299881 c -11.9127303,2.62465 -24.259002,5.195108 -34.383066,8.043341 z"
       style="fill:#101f69;fill-opacity:1;stroke:none;stroke-width:0.079375;stroke-linecap:butt;stroke-linejoin:miter;stroke-miterlimit:4;stroke-dasharray:none;stroke-opacity:1" />
    <path
       id="path1722"
       d="M -6.9826795,60.104075 -10.518213,76.45592 3.1819805,73.052968 Z"
       style="fill:#e5a300;fill-opacity:1;stroke:none;stroke-width:0.264583px;stroke-linecap:butt;stroke-linejoin:miter;stroke-opacity:1" />
    <path
       id="path1724"
       d="m -5.3033009,67.219337 -1.1932425,5.038138 4.3310289,-1.060662 z"
       style="fill:#101f69;fill-opacity:1;stroke:none;stroke-width:0.264583px;stroke-linecap:butt;stroke-linejoin:miter;stroke-opacity:1" />
    <path
       sodipodi:nodetypes="cccccccscccccscc"
       id="path1730"
       d="m 182.16838,36.415998 -0.0884,15.556349 c -3.81909,-2.61187 -7.52456,-3.69788 -12.46275,-4.507804 l -16.52862,-2.121321 c -3.44248,-0.512047 -4.14247,-0.265163 -4.46362,2.916816 l -3.04939,30.405589 c -0.22363,1.488811 -0.32146,2.441269 2.74237,2.917982 l 21.3428,2.443276 c 2.23182,0.255493 6.01293,-0.910689 8.26496,-1.472169 l -5.39169,15.46796 C 162.15352,95.869333 147.26738,94.049739 130.54958,92.365824 123.50806,90.244418 119.20832,84.8509 119.14748,77.516582 l 1.32583,-30.052039 c 0.41908,-4.598211 1.22003,-9.778898 5.65139,-13.062275 2.45917,-1.822098 6.57375,-3.943774 12.55661,-3.28957 14.26122,1.298824 28.53452,2.621817 43.48707,5.3033 z"
       style="fill:#101f69;fill-opacity:1;stroke:none;stroke-width:0.079375;stroke-linecap:butt;stroke-linejoin:miter;stroke-miterlimit:4;stroke-dasharray:none;stroke-opacity:1" />
    <path
       style="fill:#101f69;fill-opacity:1;stroke:none;stroke-width:0.079375;stroke-linecap:butt;stroke-linejoin:miter;stroke-miterlimit:4;stroke-dasharray:none;stroke-opacity:1"
       d="m 247.72668,52.560121 -2.25999,15.391565 c -3.41691,-3.119615 -6.93441,-4.712454 -11.7111,-6.204063 l -16.07041,-4.408768 c -3.33724,-0.987774 -4.06485,-0.841063 -4.82722,2.264886 l -7.26567,29.68179 c -0.42935,1.442992 -0.65923,2.372455 2.308,3.272362 l 20.79245,5.399871 c 2.17427,0.564665 6.08119,-0.06206 8.38956,-0.303535 l -7.49897,14.563431 c -9.97808,-3.58189 -24.46424,-7.46251 -40.78306,-11.46458 -6.67626,-3.083968 -10.18066,-9.025096 -9.21666,-16.29604 l 5.50963,-29.572401 c 1.05711,-4.494627 2.5737,-9.512695 7.42016,-12.145055 2.68953,-1.460818 7.06009,-2.987099 12.89296,-1.503795 13.94009,3.277686 27.88877,6.580991 42.32032,11.324332 z"
       id="path1744"
       sodipodi:nodetypes="cccccccscccccscc" />
    <path
       sodipodi:nodetypes="ccccccccc"
       id="path1738"
       d="m 72.390055,43.045125 12.9047,-0.61872 c 2.182045,0.09512 2.348628,0.951477 2.563262,3.181983 l 0.707107,31.289473 c -0.01577,2.419125 -1.851309,1.805306 -3.18198,2.032932 l -9.987883,0.353554 c -2.908118,0.16028 -2.987243,-0.560754 -3.181982,-2.032931 L 70.180347,47.376153 c -0.277915,-2.035459 -0.296008,-3.919354 2.209708,-4.331028 z"
       style="fill:#e5a300;fill-opacity:1;stroke:none;stroke-width:0.079375;stroke-linecap:butt;stroke-linejoin:miter;stroke-miterlimit:4;stroke-dasharray:none;stroke-opacity:1" />
    <path
       sodipodi:nodetypes="ccccc"
       id="path1736"
       d="m 73.18555,46.050329 11.578874,-0.441941 0.530331,30.140425 -10.076273,0.441941 z"
       style="fill:#101f69;fill-opacity:1;stroke:none;stroke-width:0.264583px;stroke-linecap:butt;stroke-linejoin:miter;stroke-opacity:1" />
    <path
       id="path1718"
       style="fill:#ffffff;stroke:none;stroke-width:0.264583px;stroke-linecap:butt;stroke-linejoin:miter;stroke-opacity:1"
       d="m 9.5001952,40.749966 -25.8754232,5.750038 2.000395,1.250053 c -2.418328,8.54229 -4.611372,17.87261 -6.694682,27.587461 -2.265485,10.564365 -4.224768,23.881532 -6.555673,32.537552 l 10.750249,-3.24993 c -2.980019,-4.1141 -0.08747,-10.84591 0.788066,-16.678572 l 28.461311,-6.806301 c 4.929221,5.720723 8.114788,10.921278 7.787122,14.609958 L 43.87484,92.000069 C 39.782982,86.232266 35.924471,79.564525 31.919497,73.355212 24.837397,62.375118 17.57464,51.446533 9.5001952,40.749966 Z M -8.4852699,53.298039 8.4852699,74.953563 -14.495756,80.521698 Z" />
    <path
       sodipodi:nodetypes="ccccccccccccc"
       id="path1728"
       d="M 178.9375,38.937498 179,47.062501 C 174.97454,44.481789 163.49853,43.887892 155,42.5 c -7.76238,-1.36341 -8.9554,1.436993 -9.4375,6.562499 l -2.9375,27.6875 c -0.35701,3.652074 -0.56209,7.222347 5,7.6875 9.67772,1.11665 22.71287,3.148966 25.6875,2.437501 L 170.5,94.5625 C 159.77278,92.426109 147.46015,91.241108 134.75,90.096181 129.35276,89.07957 122.47707,88.214625 122.1875,75.999998 l 1.375,-29.249999 C 124.05245,41.047059 126.36002,33.627925 138,34.0625 c 11.134,0.437484 26.76008,2.828569 40.9375,4.874998 z"
       style="fill:#ffffff;stroke:none;stroke-width:0.079375;stroke-linecap:butt;stroke-linejoin:miter;stroke-miterlimit:4;stroke-dasharray:none;stroke-opacity:1" />
    <path
       style="fill:#ffffff;stroke:none;stroke-width:0.079375;stroke-linecap:butt;stroke-linejoin:miter;stroke-miterlimit:4;stroke-dasharray:none;stroke-opacity:1"
       d="m 244.17533,54.605718 -1.07277,8.054113 c -3.62562,-3.117582 -14.90623,-5.308292 -23.12767,-7.86941 -7.49591,-2.434071 -9.06832,0.172284 -10.26147,5.180239 l -6.7753,27.005961 c -0.86352,3.56643 -1.56519,7.073078 3.87744,8.310423 9.42695,2.457208 22.05055,6.289976 25.09539,6.000896 l -3.85851,7.2194 c -10.32375,-3.61352 -22.35024,-6.50638 -34.77595,-9.415068 -5.20238,-1.760377 -11.88991,-3.577041 -10.47086,-15.712414 l 5.44631,-28.771353 c 1.28157,-5.578634 4.60261,-12.602813 16.06784,-10.546965 10.9638,1.988068 26.10284,6.537915 39.85555,10.544178 z"
       id="path1742"
       sodipodi:nodetypes="ccccccccccccc" />
  </g>
  <g
     style="stroke:none"
     transform="matrix(0.42585458,0,0,0.42585458,60.062441,26.913906)"
     id="g2469">
    <path
       id="path1658"
       style="fill:#ffffff;stroke:none;stroke-width:0.999999px;stroke-linecap:butt;stroke-linejoin:miter;stroke-opacity:1"
       d="m -172.34766,567.84961 c 1.22673,6.08383 2.50699,12.15402 3.84375,18.20898 H 980.95117 c 1.33677,-6.05496 2.61703,-12.12515 3.84375,-18.20898 z"
       transform="scale(0.26458333)" />
    <path
       style="fill:#ffffff;stroke:none;stroke-width:0.145185;stroke-linecap:round;stroke-linejoin:round;stroke-miterlimit:4;stroke-dasharray:none"
       id="circle1750"
       sodipodi:type="arc"
       sodipodi:cx="107.13187"
       sodipodi:cy="150.16103"
       sodipodi:rx="50.11491"
       sodipodi:ry="50.11491"
       sodipodi:start="3.1092659"
       sodipodi:end="0.029527154"
       sodipodi:open="true"
       sodipodi:arc-type="chord"
       d="m 57.04314,151.7808 a 50.11491,50.11491 0 0 1 24.52483,-44.7242 50.11491,50.11491 0 0 1 51.00702,-0.0714 50.11491,50.11491 0 0 1 24.64994,44.65536 z" />
    <path
       sodipodi:nodetypes="ccsscsccsccsscscscccccc"
       id="path1664"
       d="m 141.24458,117.64489 c 3.21776,-3.27037 7.31785,-6.54074 9.19239,-9.81111 -0.40647,1.41345 -0.56499,3.03519 -0.41125,4.91922 0.1583,1.9399 1.22494,4.81666 2.45388,7.04585 0.61058,1.10756 0.67481,2.3927 0.61974,3.51362 3.93916,-4.66546 7.42994,-9.75902 12.17468,-12.64646 4.52883,-2.75604 9.83163,-3.86619 16.01048,-4.08483 -9.0399,3.29612 -10.96304,9.16218 -14.31891,14.51086 4.97142,-5.22835 16.50438,-1.93882 19.78926,-1.87853 6.06031,0.11121 14.52903,1.10897 19.54355,-5.45771 -9.34496,16.2658 -19.25293,18.59734 -29.25654,18.56156 3.38563,2.2691 7.31701,3.77024 11.79859,4.4304 6.55839,0.96608 15.25068,-3.22551 23.62237,-4.94311 3.05237,-0.62624 6.05829,-0.0234 8.68482,1.48498 -8.54387,0.32366 -12.22599,3.35139 -17.32171,5.63049 -6.14855,2.74998 -12.03251,5.75818 -18.91751,5.15289 5.58774,2.69953 12.99215,3.23031 18.10302,2.50793 4.77065,-0.6743 8.9588,-2.33156 13.18646,-3.92215 -1.22172,2.5338 -3.03841,5.0676 -7.07107,7.6014 L 193.04015,154.14928 152.75,154.75 139.74198,121.00365 Z"
       style="fill:#ffffff;stroke:none;stroke-width:0.0529167;stroke-linecap:butt;stroke-linejoin:miter;stroke-miterlimit:4;stroke-dasharray:none;stroke-opacity:1" />
    <path
       sodipodi:nodetypes="ccccccscsscsccccscsssccccc"
       id="path1666"
       d="m 142.75,125.625 c 1.37496,-1.3944 2.6538,-1.76625 4.1875,-8.71667 2.62017,2.05559 2.58432,7.80321 4.1875,11.71667 6.11573,-2.04083 8.29464,-5.33428 10.875,-8.5 0.008,3.90536 -1.27826,6.66007 -2.75,9.25 5.39518,-3.68392 11.02274,-4.92794 16.75,-5.125 -1.97079,0.97845 -3.8711,1.83002 -5.94681,2.99731 -2.79242,1.57033 -5.33976,5.77454 -9.80319,7.69019 4.62262,-0.60392 8.73737,-2.00049 12.73457,-1.21812 3.24219,0.63459 6.95089,2.45926 9.47364,4.35934 2.88468,2.17269 5.28528,2.90892 9.16679,1.29628 -1.93714,2.16659 -3.79862,3.02606 -5.61935,3.10669 -3.55483,0.15743 -6.54583,-1.58583 -8.99975,-2.95587 -2.94986,-1.60943 -6.96828,-2.1504 -11.6309,-1.02582 5.31069,0.17603 7.91335,0.99682 9.75,2 1.64133,0.90097 -5.74922,-0.12049 -9.125,1 12.20606,2.52476 12.16494,3.4667 17.21734,5.23978 5.74557,2.01634 9.23209,2.689 17.53266,1.63522 -4.06924,3.19108 -8.74825,4.69656 -13.75482,4.63731 -3.91403,-0.0463 -7.30769,0.14164 -11.68768,-1.49436 -3.68693,-1.37714 -8.36975,-3.55028 -10.68586,-3.69727 -2.95058,-0.18724 -5.77939,0.31312 -8.37164,1.80432 3.94332,-0.20496 7.9166,-0.49981 11.375,0.75 -13.71102,1.5735 -13.30439,2.96124 -14.875,4.375 l -3.625,-2.375 z"
       style="fill:#ca0000;fill-opacity:1;stroke:none;stroke-width:0.079375;stroke-linecap:butt;stroke-linejoin:miter;stroke-miterlimit:4;stroke-dasharray:none;stroke-opacity:1" />
    <path
       sodipodi:nodetypes="sccccs"
       id="path1668"
       d="m 178.62234,125.34409 c 1.52363,-0.63144 3.33398,-0.63715 4.82411,-0.57865 2.62947,0.10006 5.40694,-0.0747 8.86605,-1.51544 -3.20101,3.5556 -6.282,6.00509 -10.76825,6.5928 -3.76035,0.46421 -6.38341,-0.42521 -11.0755,-0.56155 2.96559,-1.38348 4.36874,-2.79397 8.15359,-3.93716 z"
       style="fill:#ca0000;fill-opacity:1;stroke:none;stroke-width:0.0529167;stroke-linecap:butt;stroke-linejoin:miter;stroke-miterlimit:4;stroke-dasharray:none;stroke-opacity:1" />
    <path
       style="fill:#ffffff;stroke:none;stroke-width:0.0529167;stroke-linecap:butt;stroke-linejoin:miter;stroke-miterlimit:4;stroke-dasharray:none;stroke-opacity:1"
       d="m 73.71562,117.64489 c -3.21776,-3.27037 -7.31785,-6.54074 -9.19239,-9.81111 0.40647,1.41345 0.56499,3.03519 0.41125,4.91922 -0.1583,1.9399 -1.22494,4.81666 -2.45388,7.04585 -0.61058,1.10756 -0.67481,2.3927 -0.61974,3.51362 -3.93916,-4.66546 -7.42994,-9.75902 -12.17468,-12.64646 -4.52883,-2.75604 -9.83163,-3.86619 -16.01048,-4.08483 9.0399,3.29612 10.96304,9.16218 14.31891,14.51086 -4.97142,-5.22835 -16.50438,-1.93882 -19.78926,-1.87853 -6.06031,0.11121 -14.52903,1.10897 -19.54355,-5.45771 9.34496,16.2658 19.25293,18.59734 29.25654,18.56156 -3.38563,2.2691 -7.31701,3.77024 -11.79859,4.4304 -6.55839,0.96608 -15.25068,-3.22551 -23.62237,-4.94311 -3.05237,-0.62624 -6.05829,-0.0234 -8.68482,1.48498 8.54387,0.32366 12.22599,3.35139 17.32171,5.63049 6.14855,2.74998 12.03251,5.75818 18.91751,5.15289 -5.58774,2.69953 -12.99215,3.23031 -18.10302,2.50793 -4.77065,-0.6743 -8.9588,-2.33156 -13.18646,-3.92215 1.22172,2.5338 3.03841,5.0676 7.07107,7.6014 l 16.08668,3.88909 40.29015,0.60072 13.00802,-33.74635 z"
       id="path1698"
       sodipodi:nodetypes="ccsscsccsccsscscscccccc" />
    <path
       style="fill:#101f69;fill-opacity:1;stroke:none;stroke-width:0.079375;stroke-linecap:butt;stroke-linejoin:miter;stroke-miterlimit:4;stroke-dasharray:none;stroke-opacity:1"
       d="m 72.2102,125.625 c -1.37496,-1.3944 -2.6538,-1.76625 -4.1875,-8.71667 -2.62017,2.05559 -2.58432,7.80321 -4.1875,11.71667 -6.11573,-2.04083 -8.29464,-5.33428 -10.875,-8.5 -0.008,3.90536 1.27826,6.66007 2.75,9.25 -5.39518,-3.68392 -11.02274,-4.92794 -16.75,-5.125 1.97079,0.97845 3.8711,1.83002 5.94681,2.99731 2.79242,1.57033 5.33976,5.77454 9.80319,7.69019 -4.62262,-0.60392 -8.73737,-2.00049 -12.73457,-1.21812 -3.24219,0.63459 -6.95089,2.45926 -9.47364,4.35934 -2.88468,2.17269 -5.28528,2.90892 -9.16679,1.29628 1.93714,2.16659 3.79862,3.02606 5.61935,3.10669 3.55483,0.15743 6.54583,-1.58583 8.99975,-2.95587 2.94986,-1.60943 6.96828,-2.1504 11.6309,-1.02582 -5.31069,0.17603 -7.91335,0.99682 -9.75,2 -1.64133,0.90097 5.74922,-0.12049 9.125,1 -12.20606,2.52476 -12.16494,3.4667 -17.21734,5.23978 -5.74557,2.01634 -9.23209,2.689 -17.53266,1.63522 4.06924,3.19108 8.74825,4.69656 13.75482,4.63731 3.91403,-0.0463 7.30769,0.14164 11.68768,-1.49436 3.68693,-1.37714 8.36975,-3.55028 10.68586,-3.69727 2.95058,-0.18724 5.77939,0.31312 8.37164,1.80432 -3.94332,-0.20496 -7.9166,-0.49981 -11.375,0.75 13.71102,1.5735 13.30439,2.96124 14.875,4.375 l 3.625,-2.375 z"
       id="path1700"
       sodipodi:nodetypes="ccccccscsscsccccscsssccccc" />
    <path
       style="fill:#101f69;fill-opacity:1;stroke:none;stroke-width:0.0529167;stroke-linecap:butt;stroke-linejoin:miter;stroke-miterlimit:4;stroke-dasharray:none;stroke-opacity:1"
       d="m 36.33786,125.34409 c -1.52363,-0.63144 -3.33398,-0.63715 -4.82411,-0.57865 -2.62947,0.10006 -5.40694,-0.0747 -8.86605,-1.51544 3.20101,3.5556 6.282,6.00509 10.76825,6.5928 3.76035,0.46421 6.38341,-0.42521 11.0755,-0.56155 -2.96559,-1.38348 -4.36874,-2.79397 -8.15359,-3.93716 z"
       id="path1702"
       sodipodi:nodetypes="sccccs" />
    <circle
       r="45.37178"
       cy="150.16103"
       cx="107.13187"
       id="circle1752"
       style="fill:#101f69;fill-opacity:1;stroke:none;stroke-width:0.131444;stroke-linecap:round;stroke-linejoin:round;stroke-miterlimit:4;stroke-dasharray:none" />
    <g
       style="fill:#ffffff;stroke:none"
       transform="translate(-984.06563)"
       id="g1774">
      <path
         id="path1754"
         d="m 1094.2037,121.67976 c 1.9552,-0.79449 6.2325,-1.80938 8.7224,-2.06961 0.9401,-0.0983 2.0401,-0.24212 2.4444,-0.3197 l 0.7351,-0.14105 -0.074,-3.48305 -0.074,-3.48306 -1.8521,-0.62003 c -7.8379,-2.62397 -17.796,-2.64991 -25.32,-0.066 l -1.4029,0.48178 0.067,1.42502 c 0.037,0.78377 0.1352,2.16548 0.2186,3.07047 l 0.1517,1.64544 0.972,0.1561 c 4.7672,0.76557 10.0054,2.22995 12.2168,3.41532 0.6548,0.35101 1.2594,0.64723 1.3434,0.65826 0.084,0.011 0.917,-0.29043 1.851,-0.66993 z"
         style="fill:#ffffff;stroke:none;stroke-width:0.264583" />
      <path
         id="path1756"
         d="m 1127.8317,134.1027 c 0.2661,-0.24083 0.4839,-0.62969 0.4839,-0.86413 0,-0.23443 -0.7025,-1.64217 -1.5611,-3.12829 -3.9127,-6.77239 -9.599,-12.26648 -16.4967,-15.93915 l -2.5797,-1.37354 v 3.43499 3.43499 l 3.4049,3.40161 c 2.0704,2.06838 3.9825,4.27261 4.8785,5.62388 l 1.4736,2.22226 2.396,0.60568 c 1.3178,0.33313 3.4981,1.13858 4.8449,1.7899 1.3469,0.65133 2.4991,1.19445 2.5604,1.20696 0.061,0.0125 0.3292,-0.17432 0.5953,-0.41516 z"
         style="fill:#ffffff;stroke:none;stroke-width:0.264583" />
      <path
         id="path1758"
         d="m 1086.7371,143.06299 6.4434,-6.27345 -0.6905,-6.45729 c -0.3797,-3.55152 -0.8169,-6.60967 -0.9715,-6.79591 -0.8273,-0.99685 -7.7341,-3.11504 -12.4251,-3.81053 -2.1668,-0.32126 -2.3066,-0.31056 -3.4396,0.26331 -3.598,1.82245 -8.0512,5.31098 -10.2689,8.04433 -1.2963,1.5977 -1.363,1.75608 -1.3616,3.23366 0,2.57959 1.9244,14.28341 2.4285,14.78745 0.1685,0.16852 12.7077,3.2423 13.3127,3.26341 0.3465,0.0121 2.7534,-2.14706 6.9726,-6.25498 z"
         style="fill:#ffffff;stroke:none;stroke-width:0.264583" />
      <path
         id="path1760"
         d="m 1059.0609,158.71243 c 0.7315,-0.12091 0.9922,-0.29311 0.9922,-0.65538 0,-0.81486 1.5965,-5.54807 2.4436,-7.24459 0.4359,-0.87312 1.1978,-2.15641 1.693,-2.85174 l 0.9003,-1.26424 -0.7808,-3.76284 c -0.8887,-4.28293 -1.6103,-9.17428 -1.6103,-10.91569 v -1.18153 h -3.5665 -3.5665 l -0.5428,1.06397 c -1.757,3.44394 -3.391,8.73917 -3.9836,12.9097 -0.3719,2.61672 -0.2002,10.62739 0.2718,12.6831 l 0.319,1.38906 3.2192,-0.003 c 1.7705,-0.002 3.6657,-0.0767 4.2114,-0.16691 z"
         style="fill:#ffffff;stroke:none;stroke-width:0.264583" />
      <path
         id="path1762"
         d="m 1124.6618,163.17139 c 1.9191,-2.1242 3.9926,-5.76833 5.4112,-9.51007 0.5854,-1.54405 0.6558,-2.04488 0.5115,-3.63833 -0.3816,-4.21158 -2.7626,-13.02787 -3.7981,-14.06338 -0.9916,-0.99163 -6.733,-3.21579 -8.6162,-3.33787 l -1.0109,-0.0655 -2.9619,5.0187 -2.962,5.0187 0.8658,3.71255 c 1.1597,4.97254 1.8861,9.04057 2.1259,11.90529 l 0.1978,2.36456 4.2334,1.771 c 2.3283,0.97406 4.4278,1.78359 4.6655,1.79896 0.2378,0.0154 0.8399,-0.42319 1.338,-0.97458 z"
         style="fill:#ffffff;stroke:none;stroke-width:0.264583" />
      <path
         id="path1764"
         d="m 1106.1084,168.16861 c 1.9744,-1.7307 4.3404,-3.9626 5.2578,-4.95977 l 1.6681,-1.81305 -0.1525,-2.51354 c -0.1674,-2.75959 -1.0823,-7.97558 -2.2276,-12.7 l -0.7376,-3.04271 -1.3177,-0.43579 c -0.7247,-0.23969 -4.3208,-1.38521 -7.9913,-2.54559 l -6.6737,-2.1098 -6.4232,6.18674 c -5.1439,4.95452 -6.4059,6.30469 -6.3359,6.77893 0.1131,0.76698 2.869,12.72058 3.2326,14.02165 0.308,1.10193 0.4079,1.15998 4.6795,2.71872 3.7643,1.37362 11.3923,3.42644 13.1672,3.54348 0.1455,0.01 1.88,-1.39857 3.8543,-3.12927 z"
         style="fill:#ffffff;stroke:none;stroke-width:0.264583" />
      <path
         id="path1766"
         d="m 1122.5234,176.4109 c 3.0896,-3.74034 5.0598,-7.06763 6.8431,-11.55691 0.8663,-2.18076 1.9934,-6.42849 2.2515,-8.48528 0.091,-0.7276 0.2243,-1.60246 0.2954,-1.94412 0.2642,-1.26851 -0.4602,-0.38371 -1.3368,1.63274 -1.3665,3.14357 -2.8942,5.65689 -4.9208,8.09572 -1.011,1.21666 -1.8381,2.36435 -1.8381,2.55041 0,0.53518 -2.3221,7.41448 -3.1956,9.46729 -0.7535,1.77063 -0.8358,2.55525 -0.2681,2.55525 0.1414,0 1.1176,-1.04179 2.1694,-2.3151 z"
         style="fill:#ffffff;stroke:none;stroke-width:0.264583" />
      <path
         id="path1768"
         d="m 1072.704,183.61175 c 0.046,-0.038 -0.2912,-1.12309 -0.7488,-2.41128 -0.9648,-2.71638 -1.834,-6.40784 -1.8422,-7.82393 -0.01,-0.88945 -0.1517,-1.09095 -1.5271,-2.10009 -3.2395,-2.37685 -6.0217,-5.81524 -7.8693,-9.72506 l -0.7917,-1.67536 -1.7218,0.16269 c -0.9471,0.0895 -2.7042,0.16353 -3.9047,0.16457 -2.6063,0.002 -2.5706,-0.0857 -1.362,3.35424 1.112,3.16465 3.3702,7.5224 5.3497,10.32351 1.9234,2.72177 5.921,6.85803 8.4591,8.75254 l 1.7973,1.34156 2.0391,-0.14714 c 1.1216,-0.0809 2.0766,-0.17825 2.1224,-0.21625 z"
         style="fill:#ffffff;stroke:none;stroke-width:0.264583" />
      <path
         id="path1770"
         d="m 1092.015,188.15315 c 4.1269,-1.5938 10.3017,-5.02523 11.3793,-6.32361 0.2225,-0.2682 0.089,-1.4419 -0.5341,-4.70698 -0.4569,-2.39232 -0.8448,-4.37464 -0.862,-4.40515 -0.017,-0.0305 -1.4915,-0.36375 -3.2761,-0.74054 -3.4274,-0.72367 -8.9744,-2.42491 -12.7586,-3.91305 l -2.2678,-0.89178 -6.1601,2.66258 -6.1601,2.66258 0.1702,1.50423 c 0.2111,1.86609 0.9661,4.68514 2.0504,7.65559 0.7911,2.16744 0.895,2.31208 2.3078,3.21457 3.9482,2.52206 8.6174,4.10194 12.2711,4.15213 1.1419,0.0157 2.1185,-0.20572 3.84,-0.87057 z"
         style="fill:#ffffff;stroke:none;stroke-width:0.264583" />
      <path
         id="path1772"
         d="m 1099.3828,190.12692 c 5.1271,-1.05409 10.3612,-3.22221 14.5387,-6.02235 2.1069,-1.41231 5.3982,-4.06899 5.3982,-4.35739 0,-0.49429 -0.5867,-0.39393 -2.7314,0.46722 -3.0689,1.2322 -6.7413,2.14099 -9.5838,2.37163 -2.3003,0.18665 -2.3438,0.20358 -4.8028,1.87078 -2.858,1.93775 -6.0957,3.6114 -9.4064,4.86241 -1.4689,0.55506 -2.3151,1.01749 -2.3151,1.26515 0,0.55182 5.3241,0.27825 8.9026,-0.45745 z"
         style="fill:#ffffff;stroke:none;stroke-width:0.264583" />
    </g>
    <g
       style="fill:#e5a300;fill-opacity:1;stroke:none"
       id="g1782">
      <path
         style="fill:#e5a300;fill-opacity:1;stroke:none;stroke-width:0.264583"
         d="m 128.85183,129.06171 c -1.1641,-1.10978 -3.2388,-2.8611 -4.6104,-3.89183 l -2.4938,-1.87405 h -5.6426 -5.6425 l 1.7864,-0.45922 c 2.2547,-0.57965 6.8962,-1.44194 8.7866,-1.63236 l 1.444,-0.14547 2.9248,2.97061 c 1.6086,1.63384 3.5555,3.89335 4.3264,5.02113 0.771,1.12779 1.3649,2.04568 1.3198,2.03975 -0.045,-0.006 -1.0345,-0.91878 -2.1987,-2.02856 z"
         id="path1776" />
      <path
         style="fill:#e5a300;fill-opacity:1;stroke:none;stroke-width:0.264583"
         d="m 88.635233,170.05123 c 0.1881,-0.1687 6.6563,-4.68411 7.4762,-5.21914 0.037,-0.0244 -0.289,-1.40282 -0.7253,-3.06321 -0.4363,-1.66038 -0.9793,-4.26903 -1.2066,-5.797 -0.2273,-1.52797 -0.4962,-2.84828 -0.5975,-2.93403 -0.1014,-0.0857 -2.2991,-1.02693 -4.8838,-2.09153 -2.5846,-1.0646 -4.6521,-1.98298 -4.5942,-2.04084 0.085,-0.0854 10.4997,2.51834 10.6653,2.66646 0.027,0.024 0.4729,1.98289 0.9913,4.35316 0.5185,2.37027 1.2407,5.48538 1.605,6.92248 0.3642,1.43709 0.6623,2.68607 0.6623,2.7755 0,0.0894 -0.9823,0.61887 -2.1828,1.17653 -1.2006,0.55765 -3.3735,1.57078 -4.8287,2.2514 -1.4552,0.68061 -2.5267,1.13071 -2.3812,1.00022 z"
         id="path1778" />
      <path
         style="fill:#e5a300;fill-opacity:1;stroke:none;stroke-width:0.264583"
         d="m 127.82643,180.33674 c 0.1275,-0.11109 1.0651,-0.75532 2.0838,-1.43163 3.4354,-2.28085 3.3541,-2.15982 4.8651,-7.24509 0.7439,-2.50386 1.3526,-4.72838 1.3526,-4.94338 0,-0.215 -0.7157,-0.95315 -1.5903,-1.64034 -0.8747,-0.68719 -1.5504,-1.28944 -1.5015,-1.33833 0.049,-0.0489 1.1515,0.36665 2.4502,0.92342 2.1124,0.90556 2.3536,1.07971 2.288,1.6515 -0.09,0.78595 -2.888,9.91087 -3.3192,10.82565 -0.2035,0.43165 -1.0668,1.04012 -2.485,1.75135 -1.9658,0.98587 -4.7165,1.94633 -4.1437,1.44685 z"
         id="path1780" />
    </g>
  </g>
  <g
     style="stroke:none"
     transform="matrix(0.42585458,0,0,0.42585458,60.062441,26.913906)"
     id="g2403">
    <path
       style="color:#000000;font-style:normal;font-variant:normal;font-weight:normal;font-stretch:normal;font-size:medium;line-height:normal;font-family:sans-serif;font-variant-ligatures:normal;font-variant-position:normal;font-variant-caps:normal;font-variant-numeric:normal;font-variant-alternates:normal;font-variant-east-asian:normal;font-feature-settings:normal;font-variation-settings:normal;text-indent:0;text-align:start;text-decoration:none;text-decoration-line:none;text-decoration-style:solid;text-decoration-color:#000000;letter-spacing:normal;word-spacing:normal;text-transform:none;writing-mode:lr-tb;direction:ltr;text-orientation:mixed;dominant-baseline:auto;baseline-shift:baseline;text-anchor:start;white-space:normal;shape-padding:0;shape-margin:0;inline-size:0;clip-rule:nonzero;display:inline;overflow:visible;visibility:visible;isolation:auto;mix-blend-mode:normal;color-interpolation:sRGB;color-interpolation-filters:linearRGB;solid-color:#000000;solid-opacity:1;vector-effect:none;fill:#101f69;fill-opacity:1;fill-rule:nonzero;stroke:none;stroke-width:2.64583;stroke-linecap:butt;stroke-linejoin:miter;stroke-miterlimit:4;stroke-dasharray:none;stroke-dashoffset:0;stroke-opacity:1;color-rendering:auto;image-rendering:auto;shape-rendering:auto;text-rendering:auto;enable-background:accumulate;stop-color:#000000"
       d="m 108.64648,265.27539 c -0.5747,-0.26213 -1.24886,-0.003 -1.5039,0.19141 -0.51008,0.38936 -0.61612,0.68003 -0.91211,1.18359 -0.59199,1.00713 -1.49718,2.78575 -3.10156,5.98438 -2.07212,4.13116 -3.262355,6.61922 -3.908207,8.52148 -0.645851,1.90226 -0.694653,3.33203 -0.431641,4.74609 0.156656,0.84273 0.970418,2.5095 1.562498,3.88672 -2.813212,-2.7694 -6.37524,-4.04691 -10.720701,-3.86133 -2.972774,0.12694 -4.736443,0.86697 -6.617187,2.78711 -4.469782,4.56343 -3.461397,12.5111 1.753906,17.80078 l 3.382813,3.43165 0.753906,-4.4043 c 0.349643,-2.04118 0.895758,-3.30405 1.654297,-4.11328 0.758539,-0.80923 1.818702,-1.30446 3.601562,-1.58203 2.791384,-0.43457 5.014941,0.55407 6.083984,2.4414 0.17527,0.30942 0.18931,0.43503 0.25195,0.63086 -0.38889,0.14064 -0.833728,0.17958 -1.177731,0.4043 -0.658825,0.43038 -1.255081,0.95031 -1.630859,1.73828 -0.149558,0.31368 -0.266244,0.58422 -0.345703,0.9082 -0.07792,0.31769 -0.214719,0.83571 0.251953,1.44922 -0.480028,-0.009 -0.96132,0.078 -1.390625,0.25586 -1.81853,0.75327 -2.716846,2.5717 -2.853516,4.30664 -0.136669,1.73494 0.491973,3.68383 2.240235,4.58789 2.16144,1.11774 4.641776,0.21328 6.431636,-1.50195 0.54309,-0.52044 0.95077,-1.2557 1.4043,-1.92383 l 0.94141,2.84375 c 0.46343,1.39893 1.14024,3.19828 1.57812,4.17188 l 1.92188,4.27343 1.85742,-4.14257 c 0.55006,-1.22679 1.11236,-2.70336 1.54687,-4 0.21726,-0.64832 0.40118,-1.24866 0.53711,-1.76172 0.13594,-0.51307 0.24219,-0.85394 0.24219,-1.375 0,-0.16723 -0.0887,-0.32556 -0.10547,-0.48828 0.48551,0.78866 0.94521,1.61667 1.55274,2.22656 0.89663,0.90011 1.91074,1.59113 3.03125,1.9414 1.1205,0.35028 2.38419,0.32002 3.49023,-0.25195 1.72253,-0.89074 2.44892,-2.76331 2.35156,-4.47851 -0.0973,-1.71521 -0.99883,-3.4883 -2.75586,-4.32618 -0.45321,-0.21608 -0.83946,-0.41964 -1.43164,-0.43945 -0.0274,-9.1e-4 -0.0395,0.0194 -0.0664,0.0195 0.0892,-0.15499 0.19074,-0.32108 0.21875,-0.43359 0.0828,-0.33268 0.0645,-0.50331 0.0645,-0.68945 0,-1.14716 -0.62559,-1.75659 -1.25781,-2.32618 -0.5179,-0.46658 -1.18321,-0.77085 -1.89063,-0.99609 0.29959,-0.79816 1.0929,-1.857 2.20899,-2.48438 1.20934,-0.67969 1.09966,-0.64643 2.78515,-0.63867 2.23337,0.0104 3.65555,0.48542 4.63086,1.36719 0.97532,0.88177 1.64246,2.3145 1.95899,4.62695 l 0.57812,4.22266 3.60547,-3.61524 c 2.06347,-2.07018 3.42403,-4.52191 4.16992,-7.48046 1.23696,-4.90714 -0.86635,-10.07612 -5.15429,-12.21289 -1.26825,-0.63196 -2.25699,-0.81446 -4.51954,-0.81446 -4.26825,0 -7.2069,1.21886 -10.15429,4.07031 1.06941,-2.36949 1.77383,-4.30972 1.67969,-6.27148 -0.11421,-2.3799 -1.1694,-4.64158 -3.0293,-8.20117 -1.65978,-3.1764 -3.9501,-7.86603 -4.5957,-9.38477 -0.0811,-0.19085 -0.19483,-0.55818 -0.76954,-0.82031 z"
       id="path2373" />
    <g
       style="stroke:none"
       transform="translate(-1084.2627)"
       id="g1798">
      <path
         style="fill:#e3a201;stroke:none;stroke-width:0.264583"
         d="m 1191.4145,319.61667 c -0.3927,-0.87313 -1.0803,-2.69346 -1.5281,-4.04519 l -0.8141,-2.45769 0.6163,-1.90794 c 0.339,-1.04936 0.6746,-2.7116 0.7458,-3.69387 l 0.1294,-1.78594 h -0.8054 c -0.7899,0 -0.8113,0.0351 -1.1134,1.82632 -0.9176,5.43986 -5.0929,9.44107 -8.1839,7.84264 -2.295,-1.18679 -1.9573,-5.47335 0.5117,-6.49605 1.1711,-0.48511 2.0158,-0.0172 2.6802,1.48484 l 0.5376,1.21542 0.607,-0.89329 c 0.7548,-1.11082 1.4618,-3.14994 1.4618,-4.2164 0,-0.77038 -0.037,-0.79745 -0.8599,-0.62034 -0.473,0.10184 -1.1984,0.35822 -1.6121,0.5697 -0.9806,0.50128 -1.1591,0.27705 -0.6423,-0.80687 0.4085,-0.85659 1.7885,-1.75805 2.6912,-1.75805 0.6058,0 0.5268,-0.99221 -0.1781,-2.23666 -1.3663,-2.41212 -4.2176,-3.59936 -7.4397,-3.09774 -3.9043,0.60786 -5.6095,2.42703 -6.3551,6.77977 l -0.319,1.86192 -1.5722,-1.59464 c -4.8131,-4.88175 -5.5967,-12.0191 -1.7505,-15.94588 1.7649,-1.80187 2.886,-2.26984 5.7288,-2.39123 4.1745,-0.17828 7.3202,0.97375 9.9233,3.63408 2.9477,3.01244 4.4936,6.23975 5.0914,10.62897 0.304,2.23213 0.3566,2.36141 0.9611,2.36141 0.6266,0 0.636,-0.0335 0.4689,-1.66547 -0.2924,-2.85369 -1.1742,-5.44412 -3.5004,-10.2833 -1.4028,-2.91809 -2.3574,-5.27021 -2.5421,-6.2638 -0.4729,-2.54251 0.087,-4.191 4.221,-12.43293 3.2055,-6.39072 3.6568,-7.15846 3.888,-6.61458 0.6986,1.64341 2.9647,6.27311 4.6398,9.47883 3.6905,7.0631 3.7558,8.42285 0.708,14.7546 -2.5324,5.26089 -3.2479,7.17632 -3.7444,10.02315 -0.5162,2.96043 -0.5128,3.0035 0.2392,3.0035 0.5703,0 0.6542,-0.14489 0.8051,-1.38906 0.5821,-4.80224 1.9377,-7.96171 4.6724,-10.88994 3.0879,-3.30655 5.5548,-4.38975 9.9971,-4.38975 2.2267,0 2.7519,0.0905 3.9281,0.67659 3.6696,1.82864 5.5572,6.35768 4.4615,10.70444 -0.6969,2.76423 -1.9181,4.95834 -3.8238,6.87025 l -1.7192,1.72476 -0.2161,-1.57805 c -0.6818,-4.981 -3.0417,-7.11452 -7.8942,-7.13703 -1.7376,-0.008 -2.166,0.0927 -3.4396,0.80851 -1.5584,0.87601 -2.765,2.349 -3.0369,3.70732 -0.1574,0.78697 -0.1173,0.8369 0.8142,1.01163 1.1284,0.21169 2.4877,1.43632 2.4877,2.24123 0,0.64953 -0.07,0.66236 -1.0053,0.1845 -0.393,-0.20074 -1.1014,-0.44834 -1.5744,-0.55018 -0.9898,-0.21315 -1.0187,-0.11628 -0.5789,1.93448 0.1545,0.72043 0.6455,1.88476 1.091,2.58733 l 0.8102,1.27746 0.435,-1.17779 c 0.2637,-0.7139 0.7128,-1.33369 1.1401,-1.5735 0.6335,-0.35558 0.8009,-0.34997 1.6507,0.0552 2.4972,1.19084 2.7256,5.21497 0.3653,6.43551 -3.1094,1.60798 -7.4578,-2.7573 -8.1156,-8.14718 -0.1658,-1.35826 -0.1992,-1.40507 -1.0598,-1.48746 l -0.8887,-0.085 0.1931,1.9227 c 0.1062,1.05752 0.4168,2.57295 0.6902,3.36765 0.2734,0.79467 0.4971,1.77395 0.4971,2.17614 0,0.79121 -1.16,4.25289 -2.2098,6.59424 l -0.6524,1.45521 z"
         id="path1786" />
      <path
         style="fill:#ffffff;stroke:none;stroke-width:0.264583"
         d="m 1198.9392,284.40298 c 0.011,-0.74086 -0.1471,-1.90278 -0.3515,-2.58204 -0.4125,-1.3707 -6.2745,-13.35093 -6.5478,-13.3817 -0.095,-0.0106 -0.309,0.36751 -0.4759,0.84045 -0.2886,0.81796 -0.1488,1.16956 2.865,7.20989 3.4901,6.99482 3.7513,7.66168 3.7976,9.69407 l 0.032,1.39563 0.3304,-0.91464 c 0.1817,-0.50305 0.3394,-1.5208 0.3505,-2.26166 z"
         id="path1788" />
      <path
         style="fill:#ffffff;stroke:none;stroke-width:0.264583"
         d="m 1217.2116,293.44938 c -0.9582,-3.23559 -3.7006,-5.18584 -7.2923,-5.18584 -3.7204,0 -6.4079,1.08395 -8.8686,3.57709 -1.7909,1.81441 -2.3968,2.66764 -3.0086,4.2363 -0.3977,1.01975 -0.3961,1.03145 0.055,0.4037 1.7488,-2.43131 3.553,-4.11446 5.454,-5.0881 1.2706,-0.65077 4.1102,-1.26672 5.8589,-1.27084 3.758,-0.009 6.7499,2.37037 7.5934,6.03845 l 0.3441,1.49611 0.085,-1.5875 c 0.047,-0.87312 -0.053,-2.05184 -0.221,-2.61937 z"
         id="path1790" />
      <path
         style="fill:#ffffff;stroke:none;stroke-width:0.264583"
         d="m 1168.4034,293.92235 c 1.8458,-3.14953 5.0745,-4.34007 9.5392,-3.51745 3.0289,0.55805 6.0448,2.56116 7.9112,5.25449 1.0207,1.47283 1.1542,1.1525 0.2334,-0.56002 -0.939,-1.74633 -3.8252,-4.72376 -5.3099,-5.47767 -2.9139,-1.47973 -7.1662,-1.80829 -9.477,-0.73226 -3.0684,1.42886 -5.0101,5.33159 -4.1641,8.36994 0.1516,0.54438 0.2221,0.40642 0.3985,-0.77955 0.118,-0.79255 0.5089,-1.94341 0.8687,-2.55748 z"
         id="path1792" />
      <path
         style="fill:#ffffff;stroke:none;stroke-width:0.264583"
         d="m 1203.7269,314.52344 c 1.5009,-1.35305 1.1972,-4.06559 -0.5567,-4.97261 -1.1191,-0.57869 -1.5255,-0.46101 -0.73,0.21143 0.911,0.77012 1.2839,1.54009 1.2723,2.62713 -0.012,1.09432 -0.5189,2.03584 -1.3427,2.49243 l -0.6323,0.35046 0.5911,0.009 c 0.3252,0.005 0.9544,-0.31805 1.3983,-0.71823 z"
         id="path1794" />
      <path
         style="fill:#ffffff;stroke:none;stroke-width:0.264583"
         d="m 1192.2302,317.67807 c -0.2631,-0.68001 -0.7149,-1.98324 -1.0041,-2.89603 -0.507,-1.6003 -0.5094,-1.7091 -0.068,-3.04271 0.2517,-0.7607 0.5192,-2.42488 0.5944,-3.69818 0.1155,-1.95631 0.074,-2.31511 -0.266,-2.31511 -0.4955,0 -0.7207,0.78042 -0.7254,2.51439 0,0.72806 -0.2358,2.13559 -0.5195,3.12783 -0.5078,1.77561 -0.5081,1.82943 -0.016,3.41111 0.2751,0.88387 0.8346,2.42319 1.2435,3.42072 0.6466,1.57763 0.7756,1.74215 0.9913,1.26405 0.1758,-0.38958 0.1087,-0.90975 -0.2303,-1.78607 z"
         id="path1796" />
    </g>
  </g>
  <g
     style="stroke:none"
     transform="matrix(0.42585458,0,0,0.42585458,60.062441,26.913906)"
     id="g2443">
    <path
       id="path1660"
       style="fill:#101f69;fill-opacity:1;stroke:none;stroke-width:0.999999px;stroke-linecap:butt;stroke-linejoin:miter;stroke-opacity:1"
       d="m 406.22461,752.35156 v 218.4043 c 212.62412,-1.13514 432.98617,26.21215 618.69139,72.15824 l 54.7598,-213.72269 C 874.52242,780.15396 629.84368,753.47306 406.22461,752.35156 Z m 0,0 c -223.61907,1.1215 -468.299766,27.8024 -673.45313,76.83985 l 54.76172,213.72269 c 185.705237,-45.94609 406.06533,-73.29338 618.68946,-72.15824 z"
       transform="scale(0.26458333)" />
    <path
       id="path1674"
       style="fill:#ffffff;stroke:none;stroke-width:0.999999px;stroke-linecap:butt;stroke-linejoin:miter;stroke-opacity:1"
       d="m 406.22461,768.35156 v 184.4043 c 212.62412,-1.13514 432.98617,26.2141 618.69139,72.16014 l 42.7598,-177.72459 C 862.52242,798.15396 629.84368,769.47306 406.22461,768.35156 Z m 0,0 c -223.61907,1.1215 -456.299766,29.8024 -661.45313,78.83985 l 42.76172,177.72459 c 185.705237,-45.94604 406.06533,-73.29528 618.68946,-72.16014 z"
       transform="scale(0.26458333)" />
    <g
       id="g1856"
       style="fill:#101f69;fill-opacity:1;stroke:none">
      <path
         id="path1800"
         style="font-style:normal;font-variant:normal;font-weight:normal;font-stretch:normal;font-size:28.2222px;line-height:1.25;font-family:'Serpentine D';-inkscape-font-specification:'Serpentine D';letter-spacing:0.926042px;word-spacing:2.64583px;white-space:pre;fill:#ca0000;fill-opacity:1;stroke:none"
         d="m -51.286222,223.53039 q 0.336075,0.25115 0.517521,0.446 0.20379,0.16178 0.445124,0.51751 l -3.818988,15.16973 q -0.186794,0.66857 -0.34499,1.18788 -0.158195,0.5193 -0.33248,0.95548 -0.174285,0.43618 -0.376278,0.87773 -0.207357,0.41383 -0.492473,0.87146 l 5.181377,-1.00293 q -0.302112,-0.37271 -0.433506,-0.60599 -0.109048,-0.26636 -0.157318,-0.51573 -0.09118,-0.47103 0.08578,-1.33892 l 0.675673,-2.74668 7.564257,-1.46417 1.239738,1.801 q 0.669476,0.93401 0.819648,1.70983 0.128719,0.66499 -0.23505,1.31033 l 9.309855,-1.80207 q -0.501431,-0.36287 -1.029679,-0.86429 -0.505903,-0.53449 -0.829468,-1.01803 l -9.642624,-15.06495 z m 6.692976,9.62797 -4.932007,0.95466 1.466635,-6.23432 z" />
      <path
         id="path1802"
         style="font-style:normal;font-variant:normal;font-weight:normal;font-stretch:normal;font-size:28.2222px;line-height:1.25;font-family:'Serpentine D';-inkscape-font-specification:'Serpentine D';letter-spacing:0.926042px;word-spacing:2.64583px;white-space:pre;fill:#101f69;fill-opacity:1;stroke:none"
         d="m -20.345502,233.236 -6.124397,-11.08731 q -0.615663,-1.12823 -0.7492,-1.9357 -0.03684,-0.22275 -0.04123,-0.42227 0.01885,-0.23196 0.07497,-0.58451 l -8.659488,1.43207 q 0.305852,0.29269 0.523568,0.57134 0.213111,0.25081 0.407588,0.56192 0.217716,0.27865 0.416797,0.6176 0.226926,0.33435 0.476875,0.80791 l 8.207521,14.86201 7.76848,-1.28472 3.342494,-16.2858 q 0.130873,-0.76539 0.27074,-1.30342 0.135263,-0.56587 0.27031,-0.96008 0.162891,-0.39881 0.3442,-0.68624 0.176705,-0.31528 0.441547,-0.61653 l -4.705639,0.7782 q 0.138789,0.32032 0.198866,0.51062 0.06008,0.1903 0.101519,0.4409 0.151956,0.91885 -0.06749,2.01355 z" />
      <path
         id="path1804"
         style="font-style:normal;font-variant:normal;font-weight:normal;font-stretch:normal;font-size:28.2222px;line-height:1.25;font-family:'Serpentine D';-inkscape-font-specification:'Serpentine D';letter-spacing:0.926042px;word-spacing:2.64583px;white-space:pre;fill:#101f69;fill-opacity:1;stroke:none"
         d="m -6.1891969,215.99853 q -1.062611,0.14489 -2.0121013,0.7016 -0.9533034,0.52876 -1.5011391,1.31554 -0.4474217,0.68764 -0.5732667,1.64475 -0.125845,0.95711 0.06099,2.32732 l 1.0866794,7.96958 q 0.1868327,1.37021 0.5643298,2.25869 0.3774971,0.88848 0.9926866,1.43123 0.7384821,0.61139 1.8023598,0.89357 1.0600648,0.25423 2.1226757,0.10934 l 10.849817,-1.47941 q 1.0626109,-0.1449 2.0159142,-0.67365 0.9494905,-0.55671 1.4973275,-1.3435 0.447421,-0.68764 0.573266,-1.64475 0.125845,-0.95711 -0.06099,-2.32732 l -1.08668,-7.96958 Q 9.9558393,217.84173 9.5783422,216.95325 9.2008451,216.06478 8.5856555,215.52203 7.8471735,214.91064 6.7871087,214.65641 5.723231,214.37423 4.66062,214.51912 Z m 3.0377934,4.94065 q -0.1105744,-0.81094 -0.1207401,-1.09438 0.013985,-0.31523 0.1232988,-0.558 0.3431934,-0.61646 1.2939506,-0.7461 l 2.76838106,-0.37748 q 0.69908614,-0.0953 1.05371204,-0.001 0.3787765,0.0623 0.6444261,0.33938 0.1703205,0.20464 0.240226,0.50843 0.097869,0.29997 0.2046305,1.08295 l 1.1095573,8.13736 q 0.053381,0.39149 0.063547,0.67493 0.034316,0.25168 0.02923,0.42327 0.022878,0.16778 -0.013985,0.31522 -0.012712,0.11567 -0.081351,0.23896 -0.1817656,0.3381 -0.5262258,0.52749 -0.3203097,0.15761 -1.0193958,0.25293 l -2.51671022,0.34316 q -0.69908611,0.0953 -1.07786251,0.033 -0.35462597,-0.0941 -0.62027547,-0.37116 -0.099142,-0.10041 -0.1703206,-0.20464 -0.047028,-0.136 -0.097869,-0.29997 -0.022877,-0.16778 -0.085157,-0.41564 -0.038129,-0.27964 -0.09151,-0.67112 z" />
      <path
         id="path1806"
         style="font-style:normal;font-variant:normal;font-weight:normal;font-stretch:normal;font-size:28.2222px;line-height:1.25;font-family:'Serpentine D';-inkscape-font-specification:'Serpentine D';letter-spacing:0.926042px;word-spacing:2.64583px;white-space:pre;fill:#101f69;fill-opacity:1;stroke:none"
         d="m 23.717728,231.21685 q -0.912621,-1.03245 -1.100611,-2.68691 l -1.494368,-13.15159 q -0.187991,-1.65446 0.469727,-2.86535 l -8.664903,0.98456 q 0.91262,1.03246 1.100611,2.68692 l 1.494368,13.15159 q 0.187991,1.65446 -0.469727,2.86535 z" />
      <path
         id="path1808"
         style="font-style:normal;font-variant:normal;font-weight:normal;font-stretch:normal;font-size:28.2222px;line-height:1.25;font-family:'Serpentine D';-inkscape-font-specification:'Serpentine D';letter-spacing:0.926042px;word-spacing:2.64583px;white-space:pre;fill:#101f69;fill-opacity:1;stroke:none"
         d="m 34.755342,211.20991 -10.202474,0.92873 q 0.889307,1.0526 1.040259,2.71086 l 1.199938,13.18171 q 0.150951,1.65825 -0.533676,2.85413 l 4.665594,-0.42471 q -0.889308,-1.05261 -1.040259,-2.71086 l -1.135976,-12.47906 8.921673,14.57588 9.078234,-0.8264 -1.453229,-15.9642 q -0.150952,-1.65826 0.533676,-2.85413 l -4.665594,0.42471 q 0.889307,1.0526 1.040259,2.71085 l 1.107832,12.1699 z" />
      <path
         id="path1810"
         style="font-style:normal;font-variant:normal;font-weight:normal;font-stretch:normal;font-size:28.2222px;line-height:1.25;font-family:'Serpentine D';-inkscape-font-specification:'Serpentine D';letter-spacing:0.926042px;word-spacing:2.64583px;white-space:pre;fill:#101f69;fill-opacity:1;stroke:none"
         d="m 56.901274,212.60353 5.858582,-0.36942 q 0.732323,-0.0462 1.184759,-0.0464 0.45066,-0.0284 0.764041,0.008 0.339771,0.007 0.626762,0.0736 0.315157,0.065 0.746531,0.17915 l -0.757166,-3.48704 -16.533595,1.04255 q 0.859698,1.07692 0.964485,2.73873 l 0.832972,13.20997 q 0.104787,1.66181 -0.612825,2.83819 l 16.927922,-1.06741 0.383442,-3.78518 q -1.017287,0.46004 -1.571732,0.63639 -0.528055,0.14641 -1.063214,0.18016 l -6.957066,0.43868 -0.31081,-4.92909 6.281076,-0.39606 q 1.408313,-0.0888 2.172605,0.37201 l -0.253977,-4.02778 q -0.300948,0.16037 -0.577283,0.26263 -0.249944,0.0723 -0.556221,0.14819 -0.27811,0.0741 -0.642495,0.12534 -0.366162,0.0231 -0.873155,0.0551 l -5.745917,0.36232 z" />
      <path
         id="path1812"
         style="font-style:normal;font-variant:normal;font-weight:normal;font-stretch:normal;font-size:28.2222px;line-height:1.25;font-family:'Serpentine D';-inkscape-font-specification:'Serpentine D';letter-spacing:0.926042px;word-spacing:2.64583px;white-space:pre;fill:#ca0000;fill-opacity:1;stroke:none"
         d="m 84.966759,208.19208 q -1.072211,0.0223 -2.079165,0.46677 -1.007543,0.4162 -1.641806,1.13514 -0.523163,0.63193 -0.757695,1.56835 -0.234532,0.93643 -0.205706,2.31901 l 0.167657,8.04158 q 0.02882,1.38259 0.302183,2.30843 0.273358,0.92583 0.822405,1.53541 0.663676,0.69187 1.688279,1.09393 1.024014,0.37385 2.096225,0.3515 l 10.947834,-0.22825 q 1.072211,-0.0224 2.079754,-0.43856 1.006954,-0.44442 1.641216,-1.16335 0.52317,-0.63193 0.7577,-1.56836 0.23453,-0.93642 0.2057,-2.31901 l -0.16765,-8.04158 q -0.0288,-1.38259 -0.30219,-2.30842 -0.27336,-0.92584 -0.822403,-1.53541 -0.663676,-0.69188 -1.687691,-1.06572 -1.024602,-0.40207 -2.096813,-0.37971 z m 2.452528,5.25579 q -0.01706,-0.81826 0.0053,-1.10101 0.04996,-0.31156 0.186335,-0.54023 0.411476,-0.57314 1.370822,-0.59314 l 2.793391,-0.0582 q 0.705402,-0.0147 1.046936,0.11931 0.369162,0.10522 0.601361,0.41089 0.145787,0.22279 0.180474,0.53258 0.0629,0.3092 0.07937,1.09925 l 0.171187,8.21087 q 0.0082,0.39503 -0.0141,0.67778 0.0053,0.25394 -0.01939,0.42382 0.0035,0.1693 -0.04996,0.31156 -0.02586,0.11345 -0.108158,0.22808 -0.219258,0.31508 -0.583125,0.46381 -0.33624,0.11992 -1.041642,0.13463 l -2.539446,0.053 q -0.705402,0.0147 -1.074564,-0.0905 -0.341534,-0.13403 -0.573733,-0.4397 -0.087,-0.1111 -0.145787,-0.22278 -0.03116,-0.1405 -0.0629,-0.3092 -0.0035,-0.1693 -0.03704,-0.42266 -0.0059,-0.28216 -0.01412,-0.67718 z" />
      <path
         id="path1814"
         style="font-style:normal;font-variant:normal;font-weight:normal;font-stretch:normal;font-size:28.2222px;line-height:1.25;font-family:'Serpentine D';-inkscape-font-specification:'Serpentine D';letter-spacing:0.926042px;word-spacing:2.64583px;white-space:pre;fill:#101f69;fill-opacity:1;stroke:none"
         d="m 121.25887,222.99808 q -0.53857,0.36344 -1.10408,0.52916 -0.56552,0.16571 -1.29928,0.16101 l -6.71675,-0.043 0.0828,-12.9255 q 0.0107,-1.66508 0.8081,-2.78888 l -8.72048,-0.0559 q 0.78298,1.13393 0.77231,2.799 l -0.0848,13.23594 q -0.0107,1.66508 -0.8081,2.78888 l 16.42498,0.10523 z" />
      <path
         id="path1816"
         style="font-style:normal;font-variant:normal;font-weight:normal;font-stretch:normal;font-size:28.2222px;line-height:1.25;font-family:'Serpentine D';-inkscape-font-specification:'Serpentine D';letter-spacing:0.926042px;word-spacing:2.64583px;white-space:pre;fill:#101f69;fill-opacity:1;stroke:none"
         d="m 132.24926,216.03342 -2.86508,-4.9194 q -0.5355,-0.92057 -0.74325,-1.4919 -0.17954,-0.57043 -0.16163,-1.13459 l 0.008,-0.25387 -9.47788,-0.30095 q 0.24581,0.26193 0.4352,0.52207 0.1903,0.23194 0.37879,0.52029 0.1885,0.28835 0.37521,0.63311 0.21581,0.31745 0.45625,0.74864 l 0.3752,0.63311 5.16916,8.83272 -0.13883,4.37224 q -0.0529,1.66427 -0.8785,2.76751 l 8.71627,0.27677 q -0.754,-1.1534 -0.70115,-2.81767 l 0.13883,-4.37224 5.9027,-8.93293 q 0.3291,-0.58251 0.59551,-0.96936 0.26731,-0.41506 0.50193,-0.68998 0.23462,-0.27491 0.46656,-0.4652 0.23193,-0.19029 0.51938,-0.35058 l -5.07743,-0.16123 q 0.0219,0.19835 0.0175,0.33939 -0.004,0.11283 -0.007,0.22567 -0.0322,1.01548 -0.74417,2.0941 z" />
      <path
         id="path1818"
         style="font-style:normal;font-variant:normal;font-weight:normal;font-stretch:normal;font-size:28.2222px;line-height:1.25;font-family:'Serpentine D';-inkscape-font-specification:'Serpentine D';letter-spacing:0.926042px;word-spacing:2.64583px;white-space:pre;fill:#101f69;fill-opacity:1;stroke:none"
         d="m 156.02359,220.26024 -2.91264,-10.96293 -9.63197,-0.62144 q 0.7159,1.17742 0.60869,2.83908 l -0.85221,13.20875 q -0.1072,1.66165 -0.96847,2.73732 l 4.67516,0.30163 q -0.71589,-1.17742 -0.60869,-2.83908 l 0.74319,-11.51893 3.86474,14.61604 5.06946,0.32707 5.79539,-13.99277 -0.74319,11.51893 q -0.10721,1.66165 -0.96847,2.73732 l 8.70256,0.56148 q -0.7159,-1.17743 -0.60869,-2.83908 l 0.85221,-13.20875 q 0.10721,-1.66165 0.96848,-2.73732 l -9.63197,-0.62144 z" />
      <path
         id="path1820"
         style="font-style:normal;font-variant:normal;font-weight:normal;font-stretch:normal;font-size:28.2222px;line-height:1.25;font-family:'Serpentine D';-inkscape-font-specification:'Serpentine D';letter-spacing:0.926042px;word-spacing:2.64583px;white-space:pre;fill:#101f69;fill-opacity:1;stroke:none"
         d="m 179.54102,223.51266 7.47095,0.73588 q 0.81451,0.0802 1.379,0.10748 0.59534,0.002 1.02494,-0.0408 0.46044,-0.0681 0.78599,-0.20617 0.3564,-0.16341 0.69301,-0.41384 0.61153,-0.45022 0.99517,-1.17812 0.38641,-0.75598 0.47494,-1.65474 l 0.42051,-4.26912 q 0.0885,-0.89876 -0.14573,-1.68752 -0.23149,-0.81685 -0.74342,-1.37773 -0.53725,-0.59174 -1.33238,-0.86857 -0.76705,-0.27406 -2.36797,-0.43175 l -15.30702,-1.50774 q 0.67575,1.20091 0.51253,2.85801 l -1.29748,13.17246 q -0.16322,1.65709 -1.0603,2.70308 l 8.62249,0.84931 q -0.67576,-1.20091 -0.51254,-2.858 z m 0.30432,-3.08949 0.57542,-5.84195 3.96017,0.39008 q 0.47747,0.047 0.75003,0.15895 0.27256,0.11192 0.39086,0.35045 0.14639,0.24129 0.1583,0.6962 0.0147,0.42683 -0.0545,1.12898 l -0.14386,1.46049 q -0.083,0.84259 -0.17236,1.17409 -0.0585,0.30618 -0.22108,0.51704 -0.2215,0.23341 -0.62578,0.30703 -0.37619,0.0764 -1.05026,0.01 z" />
      <path
         id="path1822"
         style="font-style:normal;font-variant:normal;font-weight:normal;font-stretch:normal;font-size:28.2222px;line-height:1.25;font-family:'Serpentine D';-inkscape-font-specification:'Serpentine D';letter-spacing:0.926042px;word-spacing:2.64583px;white-space:pre;fill:#101f69;fill-opacity:1;stroke:none"
         d="m 202.4461,232.83488 q -0.64899,-1.21559 -0.44911,-2.86866 l 1.5889,-13.1405 q 0.19988,-1.65306 1.1199,-2.67893 l -8.6576,-1.04684 q 0.64899,1.21558 0.44911,2.86865 l -1.58889,13.1405 q -0.19988,1.65307 -1.11991,2.67894 z" />
      <path
         id="path1824"
         style="font-style:normal;font-variant:normal;font-weight:normal;font-stretch:normal;font-size:28.2222px;line-height:1.25;font-family:'Serpentine D';-inkscape-font-specification:'Serpentine D';letter-spacing:0.926042px;word-spacing:2.64583px;white-space:pre;fill:#101f69;fill-opacity:1;stroke:none"
         d="m 220.31471,237.88873 -0.98706,-2.6512 1.28498,0.18494 q 1.08944,0.15679 2.15136,-0.0896 1.06595,-0.27428 1.80895,-0.88017 0.6192,-0.53817 0.99926,-1.39589 0.38408,-0.88565 0.5851,-2.28237 l 1.14579,-7.9613 q 0.20102,-1.39671 0.0783,-2.3268 -0.11873,-0.95802 -0.56104,-1.64896 -0.54198,-0.79083 -1.49133,-1.32664 -0.94534,-0.56375 -2.03478,-0.72054 l -10.83854,-1.55989 q -1.0615,-0.15278 -2.12745,0.12151 -1.06192,0.24634 -1.80492,0.85224 -0.6192,0.53817 -1.00328,1.42382 -0.38408,0.88565 -0.58108,2.25443 l -1.14579,7.9613 q -0.197,1.36878 -0.0783,2.3268 0.11873,0.95802 0.56104,1.64896 0.54198,0.79083 1.48731,1.35458 0.94936,0.53581 2.01086,0.68858 l 6.73219,0.96891 1.01499,2.65522 z m -3.37936,-8.81215 -2.73757,-0.39399 1.04674,2.83087 -0.86597,-0.12464 q -0.69836,-0.1005 -1.04542,-0.26451 -0.31511,-0.18791 -0.46643,-0.52333 -0.0677,-0.1238 -0.10751,-0.24358 -0.0358,-0.14771 -0.0396,-0.31934 0.0241,-0.1676 0.0324,-0.42303 0.0402,-0.27935 0.0965,-0.67043 l 1.16992,-8.1289 q 0.11257,-0.78217 0.18473,-1.08542 0.10009,-0.29924 0.29986,-0.49859 0.23977,-0.27914 0.59106,-0.34263 0.38325,-0.0874 1.08161,0.0131 l 2.54203,0.36585 q 0.69836,0.10051 1.01347,0.28842 0.34706,0.16401 0.49838,0.49943 0.13544,0.24759 0.11915,0.55889 0.0117,0.31532 -0.10092,1.09748 l -1.13776,7.90543 q -0.16483,1.14531 -0.40079,1.59607 -0.20801,0.45479 -0.69517,0.66981 z" />
      <path
         id="path1826"
         style="font-style:normal;font-variant:normal;font-weight:normal;font-stretch:normal;font-size:28.2222px;line-height:1.25;font-family:'Serpentine D';-inkscape-font-specification:'Serpentine D';letter-spacing:0.926042px;word-spacing:2.64583px;white-space:pre;fill:#101f69;fill-opacity:1;stroke:none"
         d="m 230.89349,217.47896 q 0.58434,1.24796 0.29802,2.88826 l -1.82954,10.4813 q -0.2475,1.41789 -0.14287,2.29562 0.10463,0.87773 0.6179,1.7122 1.07243,1.73423 3.32438,2.12732 l 9.98086,1.74218 q 2.27975,0.39794 3.8763,-0.87042 0.76561,-0.61123 1.16142,-1.40161 0.3958,-0.79038 0.6433,-2.20827 l 1.82953,-10.4813 q 0.28633,-1.6403 1.25889,-2.6165 l -4.6151,-0.80558 q 0.58433,1.24796 0.29801,2.88827 l -1.84409,10.56469 q -0.0679,0.38923 -0.14428,0.6624 -0.0437,0.25021 -0.10059,0.41217 -0.0291,0.16681 -0.10899,0.29611 -0.0472,0.10636 -0.15003,0.20301 -0.27579,0.26699 -0.66148,0.34292 -0.35303,0.053 -1.04808,-0.0684 l -5.69938,-0.99484 q -0.69504,-0.12133 -1.03705,-0.29562 -0.30936,-0.19725 -0.4784,-0.54189 -0.064,-0.12576 -0.10018,-0.24668 -0.004,-0.14386 -0.002,-0.31552 0.0291,-0.16681 0.045,-0.42188 0.0485,-0.27802 0.11647,-0.66725 l 1.84409,-10.5647 q 0.28632,-1.6403 1.25889,-2.6165 z" />
      <path
         id="path1828"
         style="font-style:normal;font-variant:normal;font-weight:normal;font-stretch:normal;font-size:28.2222px;line-height:1.25;font-family:'Serpentine D';-inkscape-font-specification:'Serpentine D';letter-spacing:0.926042px;word-spacing:2.64583px;white-space:pre;fill:#101f69;fill-opacity:1;stroke:none"
         d="m 261.93438,226.33511 5.75363,1.16409 q 0.71921,0.14551 1.1562,0.26272 0.44259,0.0896 0.73567,0.20643 0.32635,0.0948 0.58617,0.23378 0.28749,0.14454 0.67443,0.3668 l 0.17401,-3.56405 -16.23743,-3.28521 q 0.55067,1.26317 0.22047,2.89521 l -2.62482,12.97335 q -0.3302,1.63204 -1.32859,2.5818 l 16.62469,3.36357 1.35291,-3.55588 q -1.10184,0.18019 -1.68306,0.20656 -0.54796,0.004 -1.07353,-0.10202 l -6.83244,-1.38237 0.97941,-4.8408 6.16856,1.24805 q 1.38308,0.27983 2.00155,0.92325 l 0.80032,-3.95562 q -0.33227,0.0767 -0.62567,0.10376 -0.26015,0.005 -0.57562,-0.001 -0.28781,-6.5e-4 -0.65301,-0.0457 -0.3596,-0.0728 -0.85752,-0.1735 l -5.64299,-1.14171 z" />
      <g
         aria-label="CHINON CINAIS"
         id="g1854"
         style="font-style:normal;font-weight:normal;font-size:28.2222px;line-height:1.25;font-family:sans-serif;letter-spacing:0.211667px;word-spacing:3.43958px;white-space:pre;fill:#101f69;fill-opacity:1;stroke:none">
        <path
           d="m -5.4893398,238.54087 -11.1121232,1.63961 q -2.261512,0.33369 -3.379208,2.03911 -0.535047,0.82067 -0.662737,1.69534 -0.12769,0.87468 0.08241,2.29859 l 1.174095,7.95718 q 0.210102,1.42391 0.58497,2.22443 0.374868,0.80052 1.124136,1.43169 1.562616,1.30993 3.824129,0.97624 l 11.4192416,-1.68493 0.046646,-3.74402 q -0.4220008,0.23343 -0.7922813,0.43071 -0.3464802,0.16523 -0.7291197,0.27875 -0.3826394,0.11351 -0.8531582,0.21147 -0.4705188,0.0979 -1.1126767,0.1927 l -3.6575078,0.53967 q -0.8375969,0.12359 -1.2087949,0.12131 -0.375318,-0.0302 -0.687474,-0.21237 -0.376235,-0.22976 -0.577629,-0.62796 -0.201394,-0.3982 -0.312624,-1.15204 l -1.165857,-7.90134 q -0.07415,-0.50255 -0.119469,-0.80967 -0.0174,-0.31124 -0.01831,-0.5108 0.02288,-0.2316 0.06224,-0.35152 0.06316,-0.15196 0.154243,-0.30803 0.186283,-0.28424 0.481043,-0.41332 0.32268,-0.13319 1.160277,-0.25678 l 3.9087871,-0.57675 q 0.7817574,-0.11535 1.2884354,-0.16158 0.5066779,-0.0462 0.8819956,-0.016 0.3753177,0.0302 0.675115,0.12861 0.3277171,0.0943 0.7277526,0.292 z"
           style="font-style:normal;font-variant:normal;font-weight:normal;font-stretch:normal;font-size:28.2222px;font-family:'Serpentine D';-inkscape-font-specification:'Serpentine D';fill:#ca0000;fill-opacity:1;stroke:none"
           id="path1830" />
        <path
           d="m 12.449671,247.12736 0.631083,5.23968 q 0.199112,1.65316 -0.450448,2.86844 l 8.658086,-1.0428 q -0.919542,-1.0263 -1.118654,-2.67946 l -1.582772,-13.14124 q -0.199112,-1.65316 0.450449,-2.86844 l -8.658087,1.0428 q 0.919543,1.0263 1.118655,2.67946 l 0.580462,4.81939 -5.4358215,0.65471 -0.580462,-4.81939 Q 5.8630496,238.22735 6.51261,237.01206 l -8.6580866,1.04281 q 0.9195427,1.0263 1.1186546,2.67946 l 1.58277131,13.14124 q 0.19911196,1.65316 -0.45044842,2.86844 L 8.7635875,255.7012 q -0.9195427,-1.02629 -1.1186547,-2.67945 l -0.6310836,-5.23969 z"
           style="font-style:normal;font-variant:normal;font-weight:normal;font-stretch:normal;font-size:28.2222px;font-family:'Serpentine D';-inkscape-font-specification:'Serpentine D';fill:#101f69;fill-opacity:1;stroke:none"
           id="path1832" />
        <path
           d="m 32.028863,253.17794 q -0.897331,-1.04577 -1.060958,-2.70282 L 29.66721,237.30297 q -0.163627,-1.65705 0.511836,-2.85813 l -8.678452,0.85696 q 0.897331,1.04577 1.060958,2.70282 l 1.300695,13.17215 q 0.163627,1.65705 -0.511836,2.85813 z"
           style="font-style:normal;font-variant:normal;font-weight:normal;font-stretch:normal;font-size:28.2222px;font-family:'Serpentine D';-inkscape-font-specification:'Serpentine D';fill:#101f69;fill-opacity:1;stroke:none"
           id="path1834" />
        <path
           d="m 42.622135,233.38952 -10.213989,0.79213 q 0.875144,1.06441 1.003893,2.72453 l 1.023447,13.19659 q 0.128749,1.66012 -0.571819,2.84673 l 4.670859,-0.36224 q -0.875143,-1.06441 -1.003892,-2.72453 l -0.968892,-12.49314 8.725834,14.69395 9.08848,-0.70485 -1.239483,-15.98222 q -0.12875,-1.66012 0.571819,-2.84673 l -4.67086,0.36224 q 0.875143,1.06441 1.003893,2.72453 l 0.944888,12.18363 z"
           style="font-style:normal;font-variant:normal;font-weight:normal;font-stretch:normal;font-size:28.2222px;font-family:'Serpentine D';-inkscape-font-specification:'Serpentine D';fill:#101f69;fill-opacity:1;stroke:none"
           id="path1836" />
        <path
           d="m 61.050636,232.14173 q -1.071176,0.0521 -2.0654,0.52434 -0.995595,0.44402 -1.609647,1.18029 -0.505412,0.64621 -0.713847,1.58879 -0.208435,0.94258 -0.141223,2.32383 l 0.390922,8.03382 q 0.06721,1.38126 0.366176,2.29914 0.298964,0.91789 0.864729,1.51198 0.682635,0.67318 1.718008,1.04663 1.034002,0.34526 2.105178,0.29314 l 10.937273,-0.5322 q 1.071176,-0.0521 2.066772,-0.49615 0.994223,-0.47221 1.608275,-1.20848 0.505412,-0.64622 0.713847,-1.58879 0.208435,-0.94258 0.141224,-2.32383 L 77.042,236.76041 q -0.06721,-1.38125 -0.366176,-2.29914 -0.298964,-0.91788 -0.864729,-1.51198 -0.682635,-0.67317 -1.716636,-1.01843 -1.035374,-0.37346 -2.10655,-0.32133 z m 2.597546,5.18566 q -0.03978,-0.81748 -0.02531,-1.10074 0.04129,-0.31282 0.171261,-0.54519 0.395399,-0.58435 1.35382,-0.63099 l 2.790696,-0.13579 q 0.704721,-0.0343 1.049846,0.0902 0.371941,0.0949 0.612541,0.39403 0.151917,0.21865 0.195194,0.52736 0.07147,0.30733 0.109872,1.09662 l 0.399153,8.20295 q 0.0192,0.39465 0.0047,0.67791 0.01234,0.2537 -0.0076,0.4242 0.0082,0.16913 -0.04129,0.31282 -0.0227,0.11413 -0.101783,0.231 -0.210422,0.32105 -0.570019,0.47983 -0.332779,0.12921 -1.037501,0.1635 l -2.536996,0.12345 q -0.704721,0.0343 -1.076663,-0.0606 -0.345124,-0.12449 -0.585723,-0.42359 -0.09005,-0.10864 -0.151918,-0.21865 -0.03505,-0.13957 -0.07147,-0.30734 -0.0082,-0.16913 -0.04876,-0.42146 -0.01372,-0.28189 -0.03292,-0.67653 z"
           style="font-style:normal;font-variant:normal;font-weight:normal;font-stretch:normal;font-size:28.2222px;font-family:'Serpentine D';-inkscape-font-specification:'Serpentine D';fill:#101f69;fill-opacity:1;stroke:none"
           id="path1838" />
        <path
           d="m 89.652769,231.07813 -10.242659,0.2024 q 0.812371,1.11306 0.845269,2.77784 l 0.261512,13.23363 q 0.0329,1.66479 -0.734866,2.80907 l 4.683971,-0.0926 q -0.812371,-1.11306 -0.845269,-2.77784 l -0.247572,-12.52821 7.864847,15.17222 9.113988,-0.1801 -0.31671,-16.02708 q -0.0329,-1.66479 0.73487,-2.80907 l -4.683976,0.0926 q 0.812371,1.11305 0.84527,2.77783 l 0.241438,12.21783 z"
           style="font-style:normal;font-variant:normal;font-weight:normal;font-stretch:normal;font-size:28.2222px;font-family:'Serpentine D';-inkscape-font-specification:'Serpentine D';fill:#101f69;fill-opacity:1;stroke:none"
           id="path1840" />
        <path
           d="m 130.2688,231.23336 -11.23016,-0.2265 q -2.28553,-0.0461 -3.67065,1.45028 -0.66377,0.72054 -0.9348,1.56191 -0.27102,0.84137 -0.30004,2.28041 l -0.16219,8.04169 q -0.029,1.43904 0.20785,2.29066 0.23688,0.85161 0.87106,1.59833 1.32366,1.551 3.60919,1.5971 l 11.54054,0.23276 0.66709,-3.68441 q -0.45488,0.1602 -0.85275,0.29331 -0.36909,0.10547 -0.76526,0.15393 -0.39617,0.0485 -0.87642,0.067 -0.48025,0.0185 -1.12923,0.005 l -3.69635,-0.0745 q -0.8465,-0.0171 -1.21217,-0.0809 -0.36511,-0.0921 -0.64272,-0.32347 -0.33291,-0.28899 -0.46545,-0.71509 -0.13255,-0.42609 -0.11718,-1.18793 l 0.16105,-7.98526 q 0.0102,-0.5079 0.0165,-0.81828 0.0345,-0.30981 0.0667,-0.50676 0.061,-0.22459 0.11969,-0.33632 0.0875,-0.13937 0.20321,-0.27818 0.23085,-0.2494 0.54294,-0.32778 0.34031,-0.0778 1.1868,-0.0608 l 3.9503,0.0797 q 0.79007,0.0159 1.29739,0.0544 0.50733,0.0385 0.87244,0.13051 0.3651,0.0921 0.64442,0.23882 0.30754,0.14735 0.66923,0.40869 z"
           style="font-style:normal;font-variant:normal;font-weight:normal;font-stretch:normal;font-size:28.2222px;font-family:'Serpentine D';-inkscape-font-specification:'Serpentine D';fill:#ca0000;fill-opacity:1;stroke:none"
           id="path1842" />
        <path
           d="m 141.35215,250.50907 q -0.74543,-1.15896 -0.68025,-2.82279 l 0.51811,-13.22607 q 0.0652,-1.66383 0.89898,-2.76092 l -8.71398,-0.34136 q 0.74543,1.15896 0.68025,2.82279 l -0.51811,13.22607 q -0.0652,1.66383 -0.89898,2.76092 z"
           style="font-style:normal;font-variant:normal;font-weight:normal;font-stretch:normal;font-size:28.2222px;font-family:'Serpentine D';-inkscape-font-specification:'Serpentine D';fill:#101f69;fill-opacity:1;stroke:none"
           id="path1844" />
        <path
           d="m 154.57378,232.36465 -10.22563,-0.62417 q 0.71998,1.17494 0.61853,2.83696 l -0.80643,13.21162 q -0.10145,1.66202 -0.95899,2.74066 l 4.67619,0.28543 q -0.71998,-1.17493 -0.61853,-2.83695 l 0.76345,-12.50738 6.61582,15.75701 9.09884,0.55539 0.97666,-16.00043 q 0.10145,-1.66202 0.95898,-2.74066 l -4.67618,-0.28544 q 0.71997,1.17494 0.61852,2.83696 l -0.74453,12.19751 z"
           style="font-style:normal;font-variant:normal;font-weight:normal;font-stretch:normal;font-size:28.2222px;font-family:'Serpentine D';-inkscape-font-specification:'Serpentine D';fill:#101f69;fill-opacity:1;stroke:none"
           id="path1846" />
        <path
           d="m 175.19451,233.86397 q 0.25274,0.33488 0.37268,0.57258 0.15061,0.21218 0.28321,0.62108 l -7.89639,13.5038 q -0.36576,0.59 -0.66245,1.04462 -0.29669,0.45462 -0.58565,0.82492 -0.28897,0.37031 -0.60605,0.73804 -0.31449,0.33963 -0.71588,0.69964 l 5.25557,0.48121 q -0.18624,-0.44216 -0.2474,-0.70282 -0.0305,-0.28619 -0.007,-0.53914 0.0437,-0.47777 0.45563,-1.26193 l 1.41456,-2.44944 7.67257,0.70251 0.68854,2.0752 q 0.38256,1.08362 0.31051,1.87055 -0.0618,0.67451 -0.591,1.19286 l 9.44315,0.86463 q -0.38039,-0.48828 -0.74792,-1.11707 -0.33685,-0.65433 -0.5128,-1.20891 l -5.06081,-17.15578 z m 3.74372,11.11207 -5.00262,-0.45804 3.1464,-5.57835 z"
           style="font-style:normal;font-variant:normal;font-weight:normal;font-stretch:normal;font-size:28.2222px;font-family:'Serpentine D';-inkscape-font-specification:'Serpentine D';fill:#101f69;fill-opacity:1;stroke:none"
           id="path1848" />
        <path
           d="m 199.16159,255.2551 q -0.65689,-1.21133 -0.46778,-2.86567 l 1.50333,-13.15056 q 0.18912,-1.65433 1.10245,-2.68617 l -8.66423,-0.99046 q 0.65689,1.21133 0.46777,2.86567 l -1.50333,13.15056 q -0.18912,1.65434 -1.10244,2.68617 z"
           style="font-style:normal;font-variant:normal;font-weight:normal;font-stretch:normal;font-size:28.2222px;font-family:'Serpentine D';-inkscape-font-specification:'Serpentine D';fill:#101f69;fill-opacity:1;stroke:none"
           id="path1850" />
        <path
           d="m 220.68944,239.09379 -12.08267,-1.62897 q -0.81111,-0.10935 -1.37804,-0.12883 -0.56315,-0.0474 -0.99777,0.008 -0.43085,0.0273 -0.76491,0.18165 -0.33028,0.12634 -0.70362,0.36078 -1.3777,0.92489 -1.63034,2.79882 l -0.69005,5.11836 q -0.29412,2.18159 0.67224,3.25163 0.22156,0.25769 0.51036,0.43902 0.31678,0.18509 0.75297,0.32933 0.4362,0.14424 1.04398,0.28314 0.61155,0.11092 1.45062,0.22405 l 5.2582,0.7089 q 0.50345,0.0679 0.6411,0.31425 0.13765,0.24638 0.0434,0.94561 l -0.0792,0.58735 q -0.0603,0.44751 -0.16686,0.60401 -0.0786,0.16027 -0.3174,0.24198 -0.0597,0.0204 -0.11942,0.0409 -0.0559,-0.008 -0.17159,0.005 -0.11187,-0.0151 -0.33563,-0.0453 -0.19578,-0.0264 -0.55938,-0.0754 l -5.39805,-0.72776 q -0.95095,-0.12821 -1.5625,-0.23913 -0.58358,-0.10716 -0.99558,-0.21966 -0.40822,-0.14047 -0.72877,-0.29759 -0.31677,-0.1851 -0.67818,-0.46164 l 0.13801,3.83459 12.36237,1.66668 q 0.81111,0.10936 1.37426,0.1568 0.56693,0.0195 0.99777,-0.008 0.43463,-0.0553 0.76491,-0.18165 0.33406,-0.1543 0.70739,-0.38875 1.37771,-0.92488 1.62658,-2.77085 l 0.68628,-5.09038 q 0.1282,-0.95095 -0.0459,-1.7718 -0.17034,-0.84881 -0.63765,-1.39593 -0.21778,-0.28566 -0.50282,-0.49495 -0.28504,-0.2093 -0.72123,-0.35354 -0.40822,-0.14047 -1.01978,-0.25139 -0.60778,-0.1389 -1.50279,-0.25956 l -4.58694,-0.61841 q -0.47548,-0.0641 -0.77937,-0.13355 -0.27215,-0.0936 -0.42488,-0.22815 -0.12476,-0.13073 -0.15053,-0.36202 -0.0258,-0.2313 0.027,-0.62286 l 0.0867,-0.64329 q 0.0754,-0.55939 0.35354,-0.72123 0.30985,-0.18605 1.03705,-0.088 l 6.43291,0.86728 q 0.67126,0.0905 1.08703,0.17502 0.41953,0.0566 0.71588,0.18195 0.29635,0.12539 0.52922,0.29917 0.26084,0.17755 0.5905,0.4783 z"
           style="font-style:normal;font-variant:normal;font-weight:normal;font-stretch:normal;font-size:28.2222px;font-family:'Serpentine D';-inkscape-font-specification:'Serpentine D';fill:#101f69;fill-opacity:1;stroke:none"
           id="path1852" />
      </g>
    </g>
  </g>
  <g
     style="stroke:none"
     transform="matrix(0.42585458,0,0,0.42585458,60.062441,26.913906)"
     id="g2491">
    <path
       id="path1662"
       style="fill:#ffffff;stroke:none;stroke-width:0.999999px;stroke-linecap:butt;stroke-linejoin:miter;stroke-opacity:1"
       d="M 406.22461,-90.865234 C 224.30416,-45.119522 108.01438,29.141649 6.6796875,97.546875 153.42366,59.62347 288.4678,47.087874 406.22461,47.033203 523.98142,47.087874 659.0236,59.62347 805.76758,97.546875 704.43289,29.141649 588.14506,-45.119522 406.22461,-90.865234 Z"
       transform="scale(0.26458333)" />
    <g
       id="g1866"
       style="fill:#101f69;fill-opacity:1;stroke:none">
      <path
         id="path1858"
         style="font-style:normal;font-variant:normal;font-weight:normal;font-stretch:normal;font-size:25.4px;line-height:1.25;font-family:'Serpentine D';-inkscape-font-specification:'Serpentine D';white-space:pre;fill:#101f69;fill-opacity:1;stroke:none"
         d="m 70.416948,-8.5347724 -0.09482,3.6160059 q 0.374663,-0.2988384 0.660021,-0.4851176 0.285357,-0.1862792 0.604668,-0.2997656 0.316404,-0.1387196 0.691994,-0.2075532 0.400823,-0.07174 0.981186,-0.1385942 l 7.040044,-0.8109681 q 0.731761,-0.084294 0.987926,0.1418769 0.281399,0.2232644 0.3686,0.9802584 0.0872,0.7569941 -0.0885,1.0073458 -0.175705,0.2503518 -0.851187,0.3792989 l -0.526989,0.086274 -5.73188,1.0693635 -0.823974,0.1716204 q -0.577455,0.092087 -0.994792,0.2424335 -0.420243,0.1251132 -0.730833,0.3142991 -0.285358,0.1862791 -0.483389,0.4647707 -0.198031,0.2784916 -0.331063,0.6773355 -0.0971,0.2668649 -0.149545,0.47745003 -0.02721,0.20767847 -0.03699,0.56675575 0.01255,0.33093745 0.05418,0.91420625 0.06395,0.55512897 0.180215,1.56445437 L 71.851051,8.3538625 88.98435,6.3802161 89.180101,2.7525834 Q 88.704505,3.0630487 88.343448,3.2580479 88.007624,3.4501405 87.615521,3.5975801 87.245744,3.71688 86.743988,3.800247 86.267465,3.880707 85.535704,3.9650016 l -7.670873,0.8836355 -0.215095,-1.867252 q -0.0436,-0.3784971 -0.01058,-0.5357093 0.05535,-0.185352 0.245591,-0.3095381 0.07279,-0.033953 0.120353,-0.065 0.04756,-0.031047 0.148492,-0.042673 0.09803,-0.03686 0.274657,-0.057207 0.173726,-0.04558 0.49885,-0.1086002 L 84.20769,0.87084765 85.160736,0.70992694 q 1.15491,-0.18417427 1.776092,-0.56254598 0.621181,-0.37837171 0.999803,-1.08675374 0.208731,-0.40756402 0.284556,-1.08106562 0.09815,-0.7016416 0.01967,-1.3829362 L 87.865893,-6.658449 q -0.238349,-2.0691171 -1.352315,-2.8612421 -0.360005,-0.2397775 -0.683149,-0.3815291 -0.297911,-0.1446578 -0.735595,-0.1709438 -0.44059,-0.05152 -1.124791,0.0017 -0.684202,0.05325 -1.769226,0.1782355 z" />
      <path
         id="path1860"
         style="font-style:normal;font-variant:normal;font-weight:normal;font-stretch:normal;font-size:25.4px;line-height:1.25;font-family:'Serpentine D';-inkscape-font-specification:'Serpentine D';white-space:pre;fill:#101f69;fill-opacity:1;stroke:none"
         d="m 95.325644,-10.895568 q -1.879031,0.04621 -2.969441,1.1655581 -0.34675,0.3642351 -0.566538,0.7253479 -0.220413,0.3357205 -0.362151,0.7711368 -0.11697,0.4093995 -0.180033,0.9445117 -0.03767,0.5344877 -0.02018,1.2454727 l 0.18297,7.4399503 q 0.01749,0.710985 0.08138,1.2429748 0.08929,0.5313654 0.226869,0.9599125 0.162345,0.4025303 0.399619,0.7524025 0.236649,0.32448 0.600884,0.6712298 1.144114,1.064393 3.023146,1.018182 l 9.903001,-0.2435447 q 1.87904,-0.046211 2.96945,-1.1655578 0.34675,-0.3642351 0.56716,-0.6999556 0.21979,-0.3611127 0.33676,-0.7705123 0.14173,-0.4354163 0.1794,-0.969904 0.0631,-0.5351122 0.0456,-1.24609718 l -0.18297,-7.43995032 q -0.0175,-0.710985 -0.10677,-1.2423504 -0.0639,-0.5319898 -0.22625,-0.9345201 -0.13758,-0.4285471 -0.37423,-0.753027 -0.23727,-0.3498723 -0.6015,-0.6966217 -1.14412,-1.064393 -3.02315,-1.018182 z m 2.272002,4.5683227 q -0.01374,-0.5586311 0.0537,-0.915997 0.06743,-0.3573659 0.240185,-0.5648758 0.198142,-0.2081344 0.526369,-0.2924295 0.353619,-0.08492 0.886858,-0.098034 l 2.082162,-0.051207 q 0.53324,-0.013114 0.86522,0.054945 0.35736,0.067434 0.5401,0.2662016 0.20814,0.1981428 0.29306,0.5517619 0.0849,0.3536191 0.0987,0.9122502 l 0.18921,7.6938735 q 0.0137,0.5586311 -0.0537,0.915997 -0.0674,0.357366 -0.26558,0.5655003 -0.17275,0.2075099 -0.52637,0.2924295 -0.32823,0.084295 -0.86147,0.097409 l -2.082162,0.051207 Q 99.050655,3.1649007 98.693289,3.0974663 98.361315,3.0294075 98.153181,2.8312648 97.970439,2.6324975 97.885519,2.2788784 97.8006,1.9252593 97.786861,1.3666282 Z" />
      <path
         id="path1862"
         style="font-style:normal;font-variant:normal;font-weight:normal;font-stretch:normal;font-size:25.4px;line-height:1.25;font-family:'Serpentine D';-inkscape-font-specification:'Serpentine D';white-space:pre;fill:#101f69;fill-opacity:1;stroke:none"
         d="m 112.53707,-8.7538091 -0.16085,2.8656895 2.56137,0.143766 -0.53948,9.6114717 q -0.0726,1.2933642 -0.95645,2.0832739 l 8.03915,0.4512261 Q 120.6909,5.5177623 120.7635,4.224398 l 0.82985,-14.784929 -1.95272,-0.109604 z" />
      <path
         id="path1864"
         style="font-style:normal;font-variant:normal;font-weight:normal;font-stretch:normal;font-size:25.4px;line-height:1.25;font-family:'Serpentine D';-inkscape-font-specification:'Serpentine D';white-space:pre;fill:#101f69;fill-opacity:1;stroke:none"
         d="m 127.52303,0.0332805 q 0.2371,-0.04297427 0.42032,-0.06801779 0.18321,-0.02504351 0.38435,0.0038044 0.22989,0.0073112 0.5316,0.05058309 0.30532,0.01812917 0.75789,0.08303701 l 3.74627,0.53729272 q 0.55314,0.0793318 0.69678,0.15125321 0.17239,0.0503847 0.28008,0.19412827 0.10768,0.14374359 0.10398,0.34849149 0.025,0.183211 -0.0471,0.6860656 l -0.23439,1.6342774 q -0.0865,0.6034255 -0.22678,0.8655715 -0.11149,0.2406093 -0.38455,0.3554058 -0.10778,0.035862 -0.19043,0.075329 -0.079,0.014325 -0.20835,0.021438 -0.12571,-0.01803 -0.37714,-0.05409 -0.22628,-0.032454 -0.62857,-0.09015 L 127.59616,4.1750158 Q 126.81673,4.0632301 126.2672,3.9587555 125.74281,3.857887 125.3262,3.7211569 124.9132,3.5592842 124.55409,3.3794807 124.19858,3.1745344 123.77847,2.883342 l 0.0519,3.5741711 11.81709,1.694816 q 0.72914,0.1045737 1.26074,0.1551568 0.53521,0.02544 0.92677,-0.021041 0.42032,-0.068018 0.72213,-0.204351 0.33056,-0.1578699 0.67554,-0.4163107 0.46359,-0.3697306 0.72613,-0.9479141 0.28769,-0.5745776 0.4175,-1.4797158 l 0.33536,-2.3382738 q 0.19472,-1.3577073 -0.51248,-2.15195275 -0.37694,-0.41330005 -0.86177,-0.61113353 -0.45607,-0.2193702 -1.45818,-0.38875259 l -0.62496,-0.11529251 0.68607,0.0470763 q 0.61063,0.0362583 1.02013,0.0436687 0.40949,0.00741 0.67174,-0.0319579 0.28739,-0.0357623 0.47781,-0.11109125 0.21917,-0.0968657 0.44556,-0.24401689 0.42401,-0.2727656 0.60382,-0.63187658 0.20855,-0.3806477 0.31312,-1.1097868 l 0.31373,-2.1874174 q 0.11539,-0.8045674 -0.0638,-1.5230869 -0.15407,-0.7149136 -0.59201,-1.2396026 -0.21898,-0.2623444 -0.47391,-0.4528667 -0.25133,-0.215665 -0.61765,-0.3451831 -0.33758,-0.1510548 -0.83682,-0.2483173 -0.4705,-0.1187993 -1.14936,-0.2161611 l -11.81708,-1.6948156 -1.04356,3.340079 q 0.32696,-0.1327273 0.6467,-0.215169 0.31974,-0.082442 0.7077,-0.1037801 0.38796,-0.021338 0.86928,0.022033 0.48492,0.018228 1.13864,0.1119842 l 5.65711,0.811348 q 0.80457,0.1153918 1.03786,0.4567704 0.23691,0.3162359 0.12152,1.1208033 l -0.22718,1.5839919 q -0.0577,0.4022836 -0.14404,0.6464989 -0.0576,0.2226786 -0.23009,0.351899 -0.16889,0.1040777 -0.45267,0.1146973 -0.28017,-0.014523 -0.75789,-0.083037 l -3.67084,-0.5264748 q -0.40228,-0.057696 -0.65371,-0.093756 -0.25142,-0.03606 -0.44896,-0.090051 -0.19754,-0.053991 -0.39507,-0.1079814 -0.16879,-0.075527 -0.413,-0.1618727 z" />
    </g>
  </g>
</svg>
